Mozilla Headline-Bold.ufo
<glyph name="exclam" format="1">
  <advance width="261.53448"/>
  <unicode hex="0021"/>
  <outline>
    <contour>
      <point x="88" y="191" type="line"/>
      <point x="173" y="191" type="line"/>
      <point x="208" y="583" type="line"/>
      <point x="208" y="690" type="line"/>
      <point x="54" y="690" type="line"/>
      <point x="54" y="583" type="line"/>
    </contour>
    <contour>
      <point x="55" y="0" type="line"/>
      <point x="207" y="0" type="line"/>
      <point x="207" y="147" type="line"/>
      <point x="55" y="147" type="line"/>
    </contour>
  </outline>
</glyph>
<glyph name="percent" format="1">
  <advance width="781.43966"/>
  <unicode hex="0025"/>
  <outline>
    <contour>
      <point x="53" y="0" type="line"/>
      <point x="181" y="0" type="line"/>
      <point x="393" y="322" type="line"/>
      <point x="265" y="322" type="line"/>
    </contour>
    <contour>
      <point x="389" y="368" type="line"/>
      <point x="517" y="368" type="line"/>
      <point x="729" y="690" type="line"/>
      <point x="600" y="690" type="line"/>
    </contour>
    <contour>
      <point x="217" y="360" type="curve" smooth="yes"/>
      <point x="341" y="360"/>
      <point x="409" y="431"/>
      <point x="409" y="530" type="curve" smooth="yes"/>
      <point x="409" y="629"/>
      <point x="341" y="700"/>
      <point x="217" y="700" type="curve" smooth="yes"/>
      <point x="92" y="700"/>
      <point x="24" y="629"/>
      <point x="24" y="530" type="curve" smooth="yes"/>
      <point x="24" y="431"/>
      <point x="92" y="360"/>
    </contour>
    <contour>
      <point x="217" y="444" type="curve" smooth="yes"/>
      <point x="167" y="444"/>
      <point x="142" y="467"/>
      <point x="142" y="510" type="curve" smooth="yes"/>
      <point x="142" y="550" type="line" smooth="yes"/>
      <point x="142" y="593"/>
      <point x="167" y="616"/>
      <point x="217" y="616" type="curve" smooth="yes"/>
      <point x="266" y="616"/>
      <point x="290" y="593"/>
      <point x="290" y="550" type="curve" smooth="yes"/>
      <point x="290" y="510" type="line" smooth="yes"/>
      <point x="290" y="467"/>
      <point x="266" y="444"/>
    </contour>
    <contour>
      <point x="565" y="-10" type="curve" smooth="yes"/>
      <point x="690" y="-10"/>
      <point x="757" y="61"/>
      <point x="757" y="160" type="curve" smooth="yes"/>
      <point x="757" y="259"/>
      <point x="690" y="330"/>
      <point x="565" y="330" type="curve" smooth="yes"/>
      <point x="440" y="330"/>
      <point x="373" y="259"/>
      <point x="373" y="160" type="curve" smooth="yes"/>
      <point x="373" y="61"/>
      <point x="440" y="-10"/>
    </contour>
    <contour>
      <point x="565" y="74" type="curve" smooth="yes"/>
      <point x="515" y="74"/>
      <point x="491" y="97"/>
      <point x="491" y="140" type="curve" smooth="yes"/>
      <point x="491" y="180" type="line" smooth="yes"/>
      <point x="491" y="223"/>
      <point x="515" y="246"/>
      <point x="565" y="246" type="curve" smooth="yes"/>
      <point x="614" y="246"/>
      <point x="639" y="223"/>
      <point x="639" y="180" type="curve" smooth="yes"/>
      <point x="639" y="140" type="line" smooth="yes"/>
      <point x="639" y="97"/>
      <point x="614" y="74"/>
    </contour>
  </outline>
</glyph>
<glyph name="quotesingle" format="1">
  <advance width="211.51724"/>
  <unicode hex="0027"/>
  <outline>
    <contour>
      <point x="74" y="444" type="line"/>
      <point x="137" y="444" type="line"/>
      <point x="177" y="620" type="line"/>
      <point x="177" y="690" type="line"/>
      <point x="33" y="690" type="line"/>
      <point x="33" y="620" type="line"/>
    </contour>
  </outline>
</glyph>
<glyph name="parenleft" format="1">
  <advance width="305.83621"/>
  <unicode hex="0028"/>
  <outline>
    <contour>
      <point x="184" y="-92" type="curve"/>
      <point x="301" y="-92" type="line"/>
      <point x="205" y="48"/>
      <point x="171" y="151"/>
      <point x="171" y="308" type="curve" smooth="yes"/>
      <point x="171" y="382" type="line" smooth="yes"/>
      <point x="171" y="539"/>
      <point x="205" y="642"/>
      <point x="301" y="782" type="curve"/>
      <point x="184" y="782" type="line"/>
      <point x="80" y="667"/>
      <point x="37" y="534"/>
      <point x="37" y="345" type="curve" smooth="yes"/>
      <point x="37" y="156"/>
      <point x="80" y="23"/>
    </contour>
  </outline>
</glyph>
<glyph name="asterisk" format="1">
  <advance width="435.71552"/>
  <unicode hex="002A"/>
  <outline>
    <contour>
      <point x="27" y="513" type="line"/>
      <point x="101" y="488" type="line"/>
      <point x="190" y="502" type="line"/>
      <point x="192" y="495" type="line"/>
      <point x="112" y="453" type="line"/>
      <point x="66" y="390" type="line"/>
      <point x="154" y="326" type="line"/>
      <point x="199" y="390" type="line"/>
      <point x="214" y="479" type="line"/>
      <point x="222" y="479" type="line"/>
      <point x="237" y="390" type="line"/>
      <point x="282" y="326" type="line"/>
      <point x="369" y="390" type="line"/>
      <point x="323" y="453" type="line"/>
      <point x="242" y="495" type="line"/>
      <point x="244" y="502" type="line"/>
      <point x="334" y="488" type="line"/>
      <point x="409" y="513" type="line"/>
      <point x="376" y="614" type="line"/>
      <point x="301" y="590" type="line"/>
      <point x="237" y="526" type="line"/>
      <point x="231" y="530" type="line"/>
      <point x="271" y="612" type="line"/>
      <point x="271" y="690" type="line"/>
      <point x="164" y="690" type="line"/>
      <point x="164" y="612" type="line"/>
      <point x="205" y="530" type="line"/>
      <point x="199" y="526" type="line"/>
      <point x="134" y="590" type="line"/>
      <point x="60" y="614" type="line"/>
    </contour>
  </outline>
</glyph>
<glyph name="plus" format="1">
  <advance width="474.58621"/>
  <unicode hex="002B"/>
  <outline>
    <contour>
      <point x="182" y="120" type="line"/>
      <point x="292" y="120" type="line"/>
      <point x="292" y="554" type="line"/>
      <point x="182" y="554" type="line"/>
    </contour>
    <contour>
      <point x="24" y="286" type="line"/>
      <point x="450" y="286" type="line"/>
      <point x="450" y="388" type="line"/>
      <point x="24" y="388" type="line"/>
    </contour>
  </outline>
</glyph>
<glyph name="comma" format="1">
  <advance width="243.02586"/>
  <unicode hex="002C"/>
  <outline>
    <contour>
      <point x="45" y="-99" type="line"/>
      <point x="119" y="-99" type="line"/>
      <point x="198" y="0" type="line"/>
      <point x="198" y="147" type="line"/>
      <point x="45" y="147" type="line"/>
      <point x="45" y="0" type="line"/>
      <point x="120" y="0" type="line"/>
    </contour>
  </outline>
</glyph>
<glyph name="four" format="1">
  <advance width="583.75"/>
  <unicode hex="0034"/>
  <outline>
    <contour>
      <point x="27" y="151" type="line"/>
      <point x="562" y="151" type="line"/>
      <point x="562" y="257" type="line"/>
      <point x="179" y="257" type="line"/>
      <point x="365" y="690" type="line"/>
      <point x="212" y="690" type="line"/>
      <point x="27" y="257" type="line"/>
    </contour>
    <contour>
      <point x="326" y="0" type="line"/>
      <point x="472" y="0" type="line"/>
      <point x="472" y="430" type="line"/>
      <point x="374" y="430" type="line"/>
      <point x="326" y="323" type="line"/>
    </contour>
  </outline>
</glyph>
<glyph name="five" format="1">
  <advance width="628.56034"/>
  <unicode hex="0035"/>
  <outline>
    <contour>
      <point x="319" y="-10" type="curve" smooth="yes"/>
      <point x="491" y="-10"/>
      <point x="584" y="73"/>
      <point x="584" y="229" type="curve" smooth="yes"/>
      <point x="584" y="374"/>
      <point x="504" y="458"/>
      <point x="372" y="458" type="curve" smooth="yes"/>
      <point x="293" y="458"/>
      <point x="240" y="428"/>
      <point x="226" y="364" type="curve"/>
      <point x="193" y="364" type="line"/>
      <point x="200" y="427"/>
      <point x="203" y="460"/>
      <point x="203" y="490" type="curve" smooth="yes"/>
      <point x="203" y="579" type="line"/>
      <point x="448" y="579" type="line"/>
      <point x="448" y="483" type="line"/>
      <point x="570" y="483" type="line"/>
      <point x="570" y="690" type="line"/>
      <point x="61" y="690" type="line"/>
      <point x="61" y="312" type="line"/>
      <point x="204" y="312" type="line"/>
      <point x="228" y="339"/>
      <point x="271" y="355"/>
      <point x="319" y="355" type="curve" smooth="yes"/>
      <point x="394" y="355"/>
      <point x="433" y="319"/>
      <point x="433" y="253" type="curve" smooth="yes"/>
      <point x="433" y="206" type="line" smooth="yes"/>
      <point x="433" y="139"/>
      <point x="394" y="104"/>
      <point x="319" y="104" type="curve" smooth="yes"/>
      <point x="240" y="104"/>
      <point x="199" y="142"/>
      <point x="199" y="214" type="curve" smooth="yes"/>
      <point x="199" y="242" type="line"/>
      <point x="51" y="242" type="line"/>
      <point x="66" y="65"/>
      <point x="149" y="-10"/>
    </contour>
  </outline>
</glyph>
<glyph name="six" format="1">
  <advance width="621.37931"/>
  <unicode hex="0036"/>
  <outline>
    <contour>
      <point x="316" y="-10" type="curve" smooth="yes"/>
      <point x="488" y="-10"/>
      <point x="581" y="72"/>
      <point x="581" y="226" type="curve" smooth="yes"/>
      <point x="581" y="371"/>
      <point x="498" y="458"/>
      <point x="368" y="458" type="curve" smooth="yes"/>
      <point x="288" y="458"/>
      <point x="237" y="425"/>
      <point x="220" y="357" type="curve"/>
      <point x="188" y="357" type="line"/>
      <point x="194" y="409"/>
      <point x="197" y="434"/>
      <point x="197" y="458" type="curve" smooth="yes"/>
      <point x="197" y="473" type="line" smooth="yes"/>
      <point x="197" y="547"/>
      <point x="237" y="586"/>
      <point x="314" y="586" type="curve" smooth="yes"/>
      <point x="386" y="586"/>
      <point x="424" y="550"/>
      <point x="424" y="509" type="curve" smooth="yes"/>
      <point x="424" y="495" type="line"/>
      <point x="573" y="495" type="line"/>
      <point x="548" y="637"/>
      <point x="466" y="700"/>
      <point x="314" y="700" type="curve" smooth="yes"/>
      <point x="124" y="700"/>
      <point x="43" y="599"/>
      <point x="43" y="345" type="curve" smooth="yes"/>
      <point x="43" y="89"/>
      <point x="123" y="-10"/>
    </contour>
    <contour>
      <point x="314" y="103" type="curve" smooth="yes"/>
      <point x="238" y="103"/>
      <point x="197" y="138"/>
      <point x="197" y="205" type="curve" smooth="yes"/>
      <point x="197" y="253" type="line" smooth="yes"/>
      <point x="197" y="319"/>
      <point x="238" y="355"/>
      <point x="314" y="355" type="curve" smooth="yes"/>
      <point x="390" y="355"/>
      <point x="430" y="319"/>
      <point x="430" y="253" type="curve" smooth="yes"/>
      <point x="430" y="205" type="line" smooth="yes"/>
      <point x="430" y="138"/>
      <point x="390" y="103"/>
    </contour>
  </outline>
</glyph>
<glyph name="seven" format="1">
  <advance width="545.46552"/>
  <unicode hex="0037"/>
  <outline>
    <contour>
      <point x="108" y="0" type="line"/>
      <point x="263" y="0" type="line"/>
      <point x="523" y="579" type="line"/>
      <point x="523" y="690" type="line"/>
      <point x="28" y="690" type="line"/>
      <point x="28" y="483" type="line"/>
      <point x="149" y="483" type="line"/>
      <point x="149" y="579" type="line"/>
      <point x="367" y="579" type="line"/>
    </contour>
  </outline>
</glyph>
<glyph name="nine" format="1">
  <advance width="621.37931"/>
  <unicode hex="0039"/>
  <outline>
    <contour>
      <point x="305" y="700" type="curve" smooth="yes"/>
      <point x="134" y="700"/>
      <point x="41" y="618"/>
      <point x="41" y="464" type="curve" smooth="yes"/>
      <point x="41" y="319"/>
      <point x="123" y="232"/>
      <point x="253" y="232" type="curve" smooth="yes"/>
      <point x="333" y="232"/>
      <point x="385" y="265"/>
      <point x="401" y="333" type="curve"/>
      <point x="433" y="333" type="line"/>
      <point x="427" y="281"/>
      <point x="425" y="256"/>
      <point x="425" y="232" type="curve" smooth="yes"/>
      <point x="425" y="217" type="line" smooth="yes"/>
      <point x="425" y="143"/>
      <point x="384" y="104"/>
      <point x="307" y="104" type="curve" smooth="yes"/>
      <point x="235" y="104"/>
      <point x="198" y="140"/>
      <point x="198" y="181" type="curve" smooth="yes"/>
      <point x="198" y="195" type="line"/>
      <point x="48" y="195" type="line"/>
      <point x="73" y="53"/>
      <point x="155" y="-10"/>
      <point x="307" y="-10" type="curve" smooth="yes"/>
      <point x="498" y="-10"/>
      <point x="578" y="91"/>
      <point x="578" y="345" type="curve" smooth="yes"/>
      <point x="578" y="601"/>
      <point x="498" y="700"/>
    </contour>
    <contour>
      <point x="308" y="587" type="curve" smooth="yes"/>
      <point x="384" y="587"/>
      <point x="424" y="552"/>
      <point x="424" y="485" type="curve" smooth="yes"/>
      <point x="424" y="437" type="line" smooth="yes"/>
      <point x="424" y="371"/>
      <point x="384" y="335"/>
      <point x="308" y="335" type="curve" smooth="yes"/>
      <point x="231" y="335"/>
      <point x="191" y="371"/>
      <point x="191" y="437" type="curve" smooth="yes"/>
      <point x="191" y="485" type="line" smooth="yes"/>
      <point x="191" y="552"/>
      <point x="231" y="587"/>
    </contour>
  </outline>
</glyph>
<glyph name="question" format="1">
  <advance width="543.34483"/>
  <unicode hex="003F"/>
  <outline>
    <contour>
      <point x="207" y="246" type="curve" smooth="yes"/>
      <point x="212" y="191" type="line"/>
      <point x="296" y="191" type="line"/>
      <point x="299" y="233" type="line" smooth="yes"/>
      <point x="302" y="261"/>
      <point x="313" y="274"/>
      <point x="349" y="289" type="curve" smooth="yes"/>
      <point x="479" y="335"/>
      <point x="522" y="386"/>
      <point x="522" y="488" type="curve" smooth="yes"/>
      <point x="522" y="498" type="line" smooth="yes"/>
      <point x="522" y="629"/>
      <point x="422" y="700"/>
      <point x="267" y="700" type="curve" smooth="yes"/>
      <point x="110" y="700"/>
      <point x="26" y="629"/>
      <point x="11" y="462" type="curve"/>
      <point x="156" y="462" type="line"/>
      <point x="156" y="490" type="line" smooth="yes"/>
      <point x="156" y="551"/>
      <point x="197" y="586"/>
      <point x="269" y="586" type="curve" smooth="yes"/>
      <point x="332" y="586"/>
      <point x="375" y="563"/>
      <point x="375" y="507" type="curve" smooth="yes"/>
      <point x="375" y="484" type="line" smooth="yes"/>
      <point x="375" y="445"/>
      <point x="356" y="419"/>
      <point x="301" y="400" type="curve" smooth="yes"/>
      <point x="221" y="370"/>
      <point x="195" y="331"/>
    </contour>
    <contour>
      <point x="178" y="0" type="line"/>
      <point x="330" y="0" type="line"/>
      <point x="330" y="147" type="line"/>
      <point x="178" y="147" type="line"/>
    </contour>
  </outline>
</glyph>
<glyph name="A" format="1">
  <advance width="631.41379"/>
  <unicode hex="0041"/>
  <outline>
    <contour>
      <point x="20" y="0" type="line"/>
      <point x="165" y="0" type="line"/>
      <point x="299" y="568" type="line"/>
      <point x="332" y="568" type="line"/>
      <point x="466" y="0" type="line"/>
      <point x="619" y="0" type="line"/>
      <point x="452" y="690" type="line"/>
      <point x="187" y="690" type="line"/>
    </contour>
    <contour>
      <point x="146" y="153" type="line"/>
      <point x="480" y="153" type="line"/>
      <point x="477" y="255" type="line"/>
      <point x="148" y="255" type="line"/>
    </contour>
    <contour>
      <point x="98" y="583" type="line"/>
      <point x="285" y="583" type="line"/>
      <point x="285" y="690" type="line"/>
      <point x="98" y="690" type="line"/>
    </contour>
    <contour>
      <point x="619" y="0" type="move" name="ogonek"/>
    </contour>
    <contour>
      <point x="314" y="690" type="move" name="top"/>
    </contour>
  </outline>
</glyph>
<glyph name="D" format="1">
  <advance width="686.93966"/>
  <unicode hex="0044"/>
  <outline>
    <contour>
      <point x="77" y="0" type="line"/>
      <point x="352" y="0" type="line" smooth="yes"/>
      <point x="550" y="0"/>
      <point x="647" y="104"/>
      <point x="647" y="345" type="curve" smooth="yes"/>
      <point x="647" y="585"/>
      <point x="549" y="690"/>
      <point x="352" y="690" type="curve" smooth="yes"/>
      <point x="14" y="690" type="line"/>
      <point x="14" y="583" type="line"/>
      <point x="77" y="583" type="line"/>
    </contour>
    <contour>
      <point x="342" y="107" type="curve" smooth="yes"/>
      <point x="223" y="107" type="line"/>
      <point x="223" y="583" type="line"/>
      <point x="342" y="583" type="line" smooth="yes"/>
      <point x="446" y="583"/>
      <point x="492" y="528"/>
      <point x="492" y="405" type="curve" smooth="yes"/>
      <point x="492" y="285" type="line" smooth="yes"/>
      <point x="492" y="162"/>
      <point x="446" y="107"/>
    </contour>
  </outline>
</glyph>
<glyph name="E" format="1">
  <advance width="606.33621"/>
  <unicode hex="0045"/>
  <outline>
    <contour>
      <point x="436" y="483" type="line"/>
      <point x="558" y="483" type="line"/>
      <point x="558" y="690" type="line"/>
      <point x="15" y="690" type="line"/>
      <point x="15" y="583" type="line"/>
      <point x="77" y="583" type="line"/>
      <point x="77" y="0" type="line"/>
      <point x="562" y="0" type="line"/>
      <point x="562" y="211" type="line"/>
      <point x="440" y="211" type="line"/>
      <point x="440" y="107" type="line"/>
      <point x="224" y="107" type="line"/>
      <point x="224" y="303" type="line"/>
      <point x="455" y="303" type="line"/>
      <point x="455" y="401" type="line"/>
      <point x="224" y="401" type="line"/>
      <point x="224" y="583" type="line"/>
      <point x="436" y="583" type="line"/>
    </contour>
    <contour>
      <point x="562" y="0" type="move" name="ogonek"/>
    </contour>
    <contour>
      <point x="306" y="690" type="move" name="top"/>
    </contour>
  </outline>
</glyph>
<glyph name="F" format="1">
  <advance width="586.21552"/>
  <unicode hex="0046"/>
  <outline>
    <contour>
      <point x="78" y="0" type="line"/>
      <point x="225" y="0" type="line"/>
      <point x="225" y="303" type="line"/>
      <point x="455" y="303" type="line"/>
      <point x="455" y="401" type="line"/>
      <point x="225" y="401" type="line"/>
      <point x="225" y="583" type="line"/>
      <point x="436" y="583" type="line"/>
      <point x="436" y="483" type="line"/>
      <point x="558" y="483" type="line"/>
      <point x="558" y="690" type="line"/>
      <point x="15" y="690" type="line"/>
      <point x="15" y="583" type="line"/>
      <point x="78" y="583" type="line"/>
    </contour>
  </outline>
</glyph>
<glyph name="H" format="1">
  <advance width="678.75862"/>
  <unicode hex="0048"/>
  <outline>
    <contour>
      <point x="463" y="0" type="line"/>
      <point x="610" y="0" type="line"/>
      <point x="610" y="690" type="line"/>
      <point x="463" y="690" type="line"/>
    </contour>
    <contour>
      <point x="77" y="0" type="line"/>
      <point x="223" y="0" type="line"/>
      <point x="223" y="690" type="line"/>
      <point x="14" y="690" type="line"/>
      <point x="14" y="583" type="line"/>
      <point x="77" y="583" type="line"/>
    </contour>
    <contour>
      <point x="168" y="301" type="line"/>
      <point x="515" y="301" type="line"/>
      <point x="515" y="403" type="line"/>
      <point x="168" y="403" type="line"/>
    </contour>
  </outline>
</glyph>
<glyph name="K" format="1">
  <advance width="640.27586"/>
  <unicode hex="004B"/>
  <outline>
    <contour>
      <point x="76" y="0" type="line"/>
      <point x="222" y="0" type="line"/>
      <point x="222" y="303" type="line"/>
      <point x="286" y="303" type="line"/>
      <point x="457" y="0" type="line"/>
      <point x="631" y="0" type="line"/>
      <point x="631" y="104" type="line"/>
      <point x="568" y="104" type="line"/>
      <point x="403" y="390" type="line"/>
      <point x="400" y="331" type="line"/>
      <point x="622" y="690" type="line"/>
      <point x="457" y="690" type="line"/>
      <point x="286" y="405" type="line"/>
      <point x="222" y="405" type="line"/>
      <point x="222" y="690" type="line"/>
      <point x="13" y="690" type="line"/>
      <point x="13" y="583" type="line"/>
      <point x="76" y="583" type="line"/>
    </contour>
  </outline>
</glyph>
<glyph name="L" format="1">
  <advance width="576.5431"/>
  <unicode hex="004C"/>
  <outline>
    <contour>
      <point x="78" y="0" type="line"/>
      <point x="549" y="0" type="line"/>
      <point x="549" y="211" type="line"/>
      <point x="427" y="211" type="line"/>
      <point x="427" y="107" type="line"/>
      <point x="225" y="107" type="line"/>
      <point x="225" y="583" type="line"/>
      <point x="287" y="583" type="line"/>
      <point x="287" y="690" type="line"/>
      <point x="15" y="690" type="line"/>
      <point x="15" y="583" type="line"/>
      <point x="78" y="583" type="line"/>
    </contour>
  </outline>
</glyph>
<glyph name="R" format="1">
  <advance width="654.51724"/>
  <unicode hex="0052"/>
  <outline>
    <contour>
      <point x="77" y="0" type="line"/>
      <point x="223" y="0" type="line"/>
      <point x="223" y="295" type="line"/>
      <point x="356" y="295" type="line" smooth="yes"/>
      <point x="406" y="295"/>
      <point x="429" y="271"/>
      <point x="429" y="218" type="curve" smooth="yes"/>
      <point x="429" y="0" type="line"/>
      <point x="634" y="0" type="line"/>
      <point x="634" y="107" type="line"/>
      <point x="572" y="107" type="line"/>
      <point x="572" y="201" type="line" smooth="yes"/>
      <point x="572" y="286"/>
      <point x="537" y="323"/>
      <point x="457" y="327" type="curve"/>
      <point x="457" y="360" type="line"/>
      <point x="547" y="365"/>
      <point x="593" y="412"/>
      <point x="593" y="502" type="curve" smooth="yes"/>
      <point x="593" y="623"/>
      <point x="514" y="690"/>
      <point x="379" y="690" type="curve" smooth="yes"/>
      <point x="14" y="690" type="line"/>
      <point x="14" y="583" type="line"/>
      <point x="77" y="583" type="line"/>
    </contour>
    <contour>
      <point x="369" y="394" type="curve" smooth="yes"/>
      <point x="223" y="394" type="line"/>
      <point x="223" y="583" type="line"/>
      <point x="369" y="583" type="line" smooth="yes"/>
      <point x="419" y="583"/>
      <point x="442" y="559"/>
      <point x="442" y="506" type="curve" smooth="yes"/>
      <point x="442" y="472" type="line" smooth="yes"/>
      <point x="442" y="420"/>
      <point x="419" y="394"/>
    </contour>
  </outline>
</glyph>
<glyph name="T" format="1">
  <advance width="598.03448"/>
  <unicode hex="0054"/>
  <outline>
    <contour>
      <point x="227" y="0" type="line"/>
      <point x="371" y="0" type="line"/>
      <point x="371" y="583" type="line"/>
      <point x="454" y="583" type="line"/>
      <point x="454" y="483" type="line"/>
      <point x="575" y="483" type="line"/>
      <point x="575" y="690" type="line"/>
      <point x="24" y="690" type="line"/>
      <point x="24" y="483" type="line"/>
      <point x="145" y="483" type="line"/>
      <point x="145" y="583" type="line"/>
      <point x="227" y="583" type="line"/>
    </contour>
  </outline>
</glyph>
<glyph name="U" format="1">
  <advance width="692.10345"/>
  <unicode hex="0055"/>
  <outline>
    <contour>
      <point x="275" y="-10" type="curve" smooth="yes"/>
      <point x="377" y="-10"/>
      <point x="434" y="33"/>
      <point x="456" y="124" type="curve"/>
      <point x="488" y="124" type="line"/>
      <point x="488" y="89" type="line" smooth="yes"/>
      <point x="488" y="31"/>
      <point x="519" y="0"/>
      <point x="576" y="0" type="curve" smooth="yes"/>
      <point x="678" y="0" type="line"/>
      <point x="678" y="107" type="line"/>
      <point x="615" y="107" type="line"/>
      <point x="615" y="690" type="line"/>
      <point x="469" y="690" type="line"/>
      <point x="469" y="253" type="line" smooth="yes"/>
      <point x="469" y="151"/>
      <point x="430" y="105"/>
      <point x="343" y="105" type="curve" smooth="yes"/>
      <point x="257" y="105"/>
      <point x="218" y="151"/>
      <point x="218" y="253" type="curve" smooth="yes"/>
      <point x="218" y="690" type="line"/>
      <point x="9" y="690" type="line"/>
      <point x="9" y="583" type="line"/>
      <point x="71" y="583" type="line"/>
      <point x="71" y="224" type="line" smooth="yes"/>
      <point x="71" y="72"/>
      <point x="142" y="-10"/>
    </contour>
    <contour>
      <point x="343" y="690" type="move" name="top"/>
    </contour>
  </outline>
</glyph>
<glyph name="V" format="1">
  <advance width="624.96552"/>
  <unicode hex="0056"/>
  <outline>
    <contour>
      <point x="180" y="0" type="line"/>
      <point x="445" y="0" type="line"/>
      <point x="612" y="690" type="line"/>
      <point x="466" y="690" type="line"/>
      <point x="332" y="122" type="line"/>
      <point x="299" y="122" type="line"/>
      <point x="165" y="690" type="line"/>
      <point x="13" y="690" type="line"/>
    </contour>
  </outline>
</glyph>
<glyph name="W" format="1">
  <advance width="950.61207"/>
  <unicode hex="0057"/>
  <outline>
    <contour>
      <point x="147" y="0" type="line"/>
      <point x="384" y="0" type="line"/>
      <point x="459" y="443" type="line"/>
      <point x="492" y="443" type="line"/>
      <point x="566" y="0" type="line"/>
      <point x="803" y="0" type="line"/>
      <point x="935" y="690" type="line"/>
      <point x="792" y="690" type="line"/>
      <point x="692" y="119" type="line"/>
      <point x="659" y="119" type="line"/>
      <point x="557" y="690" type="line"/>
      <point x="400" y="690" type="line"/>
      <point x="297" y="119" type="line"/>
      <point x="265" y="119" type="line"/>
      <point x="165" y="690" type="line"/>
      <point x="15" y="690" type="line"/>
    </contour>
  </outline>
</glyph>
<glyph name="asciicircum" format="1">
  <advance width="474.58621"/>
  <unicode hex="005E"/>
  <outline>
    <contour>
      <point x="40" y="419" type="line"/>
      <point x="150" y="419" type="line"/>
      <point x="223" y="590" type="line"/>
      <point x="255" y="590" type="line"/>
      <point x="326" y="419" type="line"/>
      <point x="434" y="419" type="line"/>
      <point x="315" y="690" type="line"/>
      <point x="167" y="690" type="line"/>
    </contour>
  </outline>
</glyph>
<glyph name="underscore" format="1">
  <advance width="499.77586"/>
  <unicode hex="005F"/>
  <outline>
    <contour>
      <point x="42" y="-129" type="line"/>
      <point x="457" y="-129" type="line"/>
      <point x="457" y="-26" type="line"/>
      <point x="42" y="-26" type="line"/>
    </contour>
  </outline>
</glyph>
<glyph name="b" format="1">
  <advance width="596.03448"/>
  <unicode hex="0062"/>
  <outline>
    <contour>
      <point x="362" y="-10" type="curve" smooth="yes"/>
      <point x="482" y="-10"/>
      <point x="561" y="94"/>
      <point x="561" y="267" type="curve" smooth="yes"/>
      <point x="561" y="440"/>
      <point x="483" y="544"/>
      <point x="362" y="544" type="curve" smooth="yes"/>
      <point x="289" y="544"/>
      <point x="243" y="508"/>
      <point x="226" y="436" type="curve"/>
      <point x="193" y="436" type="line"/>
      <point x="200" y="499"/>
      <point x="203" y="531"/>
      <point x="203" y="562" type="curve" smooth="yes"/>
      <point x="203" y="690" type="line"/>
      <point x="6" y="690" type="line"/>
      <point x="6" y="587" type="line"/>
      <point x="61" y="587" type="line"/>
      <point x="61" y="0" type="line"/>
      <point x="184" y="0" type="line"/>
      <point x="184" y="108" type="line"/>
      <point x="217" y="108" type="line"/>
      <point x="235" y="31"/>
      <point x="286" y="-10"/>
    </contour>
    <contour>
      <point x="307" y="101" type="curve" smooth="yes"/>
      <point x="236" y="101"/>
      <point x="203" y="140"/>
      <point x="203" y="228" type="curve" smooth="yes"/>
      <point x="203" y="306" type="line" smooth="yes"/>
      <point x="203" y="394"/>
      <point x="236" y="433"/>
      <point x="307" y="433" type="curve" smooth="yes"/>
      <point x="378" y="433"/>
      <point x="411" y="394"/>
      <point x="411" y="306" type="curve" smooth="yes"/>
      <point x="411" y="228" type="line" smooth="yes"/>
      <point x="411" y="140"/>
      <point x="378" y="101"/>
    </contour>
  </outline>
</glyph>
<glyph name="g" format="1">
  <advance width="546.55172"/>
  <unicode hex="0067"/>
  <outline>
    <contour>
      <point x="45" y="-132" type="line"/>
      <point x="354" y="-132" type="line" smooth="yes"/>
      <point x="465" y="-132"/>
      <point x="526" y="-84"/>
      <point x="526" y="7" type="curve" smooth="yes"/>
      <point x="526" y="89"/>
      <point x="474" y="133"/>
      <point x="378" y="133" type="curve" smooth="yes"/>
      <point x="199" y="133" type="line" smooth="yes"/>
      <point x="180" y="133"/>
      <point x="172" y="140"/>
      <point x="172" y="153" type="curve" smooth="yes"/>
      <point x="172" y="167"/>
      <point x="180" y="173"/>
      <point x="199" y="173" type="curve" smooth="yes"/>
      <point x="273" y="173" type="line" smooth="yes"/>
      <point x="412" y="173"/>
      <point x="494" y="237"/>
      <point x="494" y="355" type="curve" smooth="yes"/>
      <point x="494" y="477"/>
      <point x="411" y="544"/>
      <point x="267" y="544" type="curve" smooth="yes"/>
      <point x="123" y="544"/>
      <point x="40" y="477"/>
      <point x="40" y="355" type="curve" smooth="yes"/>
      <point x="40" y="273"/>
      <point x="73" y="219"/>
      <point x="142" y="200" type="curve"/>
      <point x="142" y="171" type="line"/>
      <point x="78" y="170"/>
      <point x="44" y="144"/>
      <point x="44" y="96" type="curve" smooth="yes"/>
      <point x="44" y="47"/>
      <point x="79" y="23"/>
      <point x="155" y="23" type="curve" smooth="yes"/>
      <point x="352" y="23" type="line" smooth="yes"/>
      <point x="375" y="23"/>
      <point x="386" y="15"/>
      <point x="386" y="-3" type="curve" smooth="yes"/>
      <point x="386" y="-22"/>
      <point x="375" y="-29"/>
      <point x="352" y="-29" type="curve" smooth="yes"/>
      <point x="45" y="-29" type="line"/>
    </contour>
    <contour>
      <point x="267" y="271" type="curve" smooth="yes"/>
      <point x="207" y="271"/>
      <point x="178" y="293"/>
      <point x="178" y="341" type="curve" smooth="yes"/>
      <point x="178" y="370" type="line" smooth="yes"/>
      <point x="178" y="418"/>
      <point x="207" y="440"/>
      <point x="267" y="440" type="curve" smooth="yes"/>
      <point x="326" y="440"/>
      <point x="356" y="418"/>
      <point x="356" y="370" type="curve" smooth="yes"/>
      <point x="356" y="341" type="line" smooth="yes"/>
      <point x="356" y="293"/>
      <point x="326" y="271"/>
    </contour>
    <contour>
      <point x="337" y="508" type="curve"/>
      <point x="360" y="486" type="line"/>
      <point x="360" y="519"/>
      <point x="374" y="534"/>
      <point x="402" y="534" type="curve" smooth="yes"/>
      <point x="518" y="534" type="line"/>
      <point x="518" y="637" type="line"/>
      <point x="439" y="637" type="line" smooth="yes"/>
      <point x="369" y="637"/>
      <point x="337" y="596"/>
    </contour>
  </outline>
</glyph>
<glyph name="i" format="1">
  <advance width="271.87931"/>
  <unicode hex="0069"/>
  <outline>
    <contour>
      <point x="69" y="0" type="line"/>
      <point x="212" y="0" type="line"/>
      <point x="212" y="534" type="line"/>
      <point x="12" y="534" type="line"/>
      <point x="12" y="431" type="line"/>
      <point x="69" y="431" type="line"/>
    </contour>
    <contour>
      <point x="62" y="574" type="line"/>
      <point x="216" y="574" type="line"/>
      <point x="216" y="690" type="line"/>
      <point x="62" y="690" type="line"/>
    </contour>
  </outline>
</glyph>
<glyph name="j" format="1">
  <advance width="271.87931"/>
  <unicode hex="006A"/>
  <outline>
    <contour>
      <point x="5" y="-132" type="line"/>
      <point x="124" y="-132" type="line" smooth="yes"/>
      <point x="181" y="-132"/>
      <point x="212" y="-101"/>
      <point x="212" y="-43" type="curve" smooth="yes"/>
      <point x="212" y="534" type="line"/>
      <point x="12" y="534" type="line"/>
      <point x="12" y="431" type="line"/>
      <point x="69" y="431" type="line"/>
      <point x="69" y="-29" type="line"/>
      <point x="5" y="-29" type="line"/>
    </contour>
    <contour>
      <point x="62" y="574" type="line"/>
      <point x="216" y="574" type="line"/>
      <point x="216" y="690" type="line"/>
      <point x="62" y="690" type="line"/>
    </contour>
  </outline>
</glyph>
<glyph name="k" format="1">
  <advance width="572.12069"/>
  <unicode hex="006B"/>
  <outline>
    <contour>
      <point x="60" y="0" type="line"/>
      <point x="203" y="0" type="line"/>
      <point x="203" y="227" type="line"/>
      <point x="260" y="227" type="line"/>
      <point x="395" y="0" type="line"/>
      <point x="557" y="0" type="line"/>
      <point x="557" y="103" type="line"/>
      <point x="502" y="103" type="line"/>
      <point x="371" y="313" type="line"/>
      <point x="369" y="252" type="line"/>
      <point x="554" y="534" type="line"/>
      <point x="392" y="534" type="line"/>
      <point x="260" y="325" type="line"/>
      <point x="203" y="325" type="line"/>
      <point x="203" y="690" type="line"/>
      <point x="5" y="690" type="line"/>
      <point x="5" y="587" type="line"/>
      <point x="60" y="587" type="line"/>
    </contour>
  </outline>
</glyph>
<glyph name="l" format="1">
  <advance width="266.81897"/>
  <unicode hex="006C"/>
  <outline>
    <contour>
      <point x="63" y="0" type="line"/>
      <point x="206" y="0" type="line"/>
      <point x="206" y="690" type="line"/>
      <point x="6" y="690" type="line"/>
      <point x="6" y="587" type="line"/>
      <point x="63" y="587" type="line"/>
    </contour>
  </outline>
</glyph>
<glyph name="q" format="1">
  <advance width="597.03448"/>
  <unicode hex="0071"/>
  <outline>
    <contour>
      <point x="393" y="-25" type="curve" smooth="yes"/>
      <point x="393" y="-132" type="line"/>
      <point x="591" y="-132" type="line"/>
      <point x="591" y="-29" type="line"/>
      <point x="536" y="-29" type="line"/>
      <point x="536" y="534" type="line"/>
      <point x="412" y="534" type="line"/>
      <point x="412" y="426" type="line"/>
      <point x="379" y="426" type="line"/>
      <point x="361" y="503"/>
      <point x="310" y="544"/>
      <point x="234" y="544" type="curve" smooth="yes"/>
      <point x="114" y="544"/>
      <point x="35" y="440"/>
      <point x="35" y="267" type="curve" smooth="yes"/>
      <point x="35" y="94"/>
      <point x="114" y="-10"/>
      <point x="234" y="-10" type="curve" smooth="yes"/>
      <point x="307" y="-10"/>
      <point x="354" y="26"/>
      <point x="370" y="98" type="curve"/>
      <point x="403" y="98" type="line"/>
      <point x="396" y="35"/>
      <point x="393" y="3"/>
    </contour>
    <contour>
      <point x="289" y="101" type="curve" smooth="yes"/>
      <point x="218" y="101"/>
      <point x="186" y="140"/>
      <point x="186" y="228" type="curve" smooth="yes"/>
      <point x="186" y="306" type="line" smooth="yes"/>
      <point x="186" y="394"/>
      <point x="218" y="433"/>
      <point x="289" y="433" type="curve" smooth="yes"/>
      <point x="360" y="433"/>
      <point x="393" y="394"/>
      <point x="393" y="306" type="curve" smooth="yes"/>
      <point x="393" y="228" type="line" smooth="yes"/>
      <point x="393" y="140"/>
      <point x="360" y="101"/>
    </contour>
  </outline>
</glyph>
<glyph name="u" format="1">
  <advance width="603.97414"/>
  <unicode hex="0075"/>
  <outline>
    <contour>
      <point x="231" y="-10" type="curve" smooth="yes"/>
      <point x="308" y="-10"/>
      <point x="353" y="27"/>
      <point x="371" y="107" type="curve"/>
      <point x="403" y="107" type="line"/>
      <point x="403" y="89" type="line" smooth="yes"/>
      <point x="403" y="31"/>
      <point x="434" y="0"/>
      <point x="492" y="0" type="curve" smooth="yes"/>
      <point x="583" y="0" type="line"/>
      <point x="583" y="103" type="line"/>
      <point x="527" y="103" type="line"/>
      <point x="527" y="534" type="line"/>
      <point x="384" y="534" type="line"/>
      <point x="384" y="206" type="line" smooth="yes"/>
      <point x="384" y="133"/>
      <point x="357" y="101"/>
      <point x="298" y="101" type="curve" smooth="yes"/>
      <point x="239" y="101"/>
      <point x="213" y="133"/>
      <point x="213" y="206" type="curve" smooth="yes"/>
      <point x="213" y="534" type="line"/>
      <point x="14" y="534" type="line"/>
      <point x="14" y="431" type="line"/>
      <point x="69" y="431" type="line"/>
      <point x="69" y="179" type="line" smooth="yes"/>
      <point x="69" y="55"/>
      <point x="125" y="-10"/>
    </contour>
    <contour>
      <point x="298" y="534" type="move" name="top"/>
    </contour>
  </outline>
</glyph>
<glyph name="y" format="1">
  <advance width="537.06034"/>
  <unicode hex="0079"/>
  <outline>
    <contour>
      <point x="81" y="-132" type="line"/>
      <point x="285" y="-132" type="line" smooth="yes"/>
      <point x="343" y="-132"/>
      <point x="369" y="-102"/>
      <point x="384" y="-43" type="curve" smooth="yes"/>
      <point x="526" y="534" type="line"/>
      <point x="384" y="534" type="line"/>
      <point x="290" y="131" type="line"/>
      <point x="257" y="131" type="line"/>
      <point x="163" y="534" type="line"/>
      <point x="14" y="534" type="line"/>
      <point x="139" y="29" type="line"/>
      <point x="262" y="29" type="line"/>
      <point x="247" y="-29" type="line"/>
      <point x="81" y="-29" type="line"/>
    </contour>
    <contour>
      <point x="274" y="534" type="move" name="top"/>
    </contour>
  </outline>
</glyph>
<glyph name="z" format="1">
  <advance width="492.26724"/>
  <unicode hex="007A"/>
  <outline>
    <contour>
      <point x="30" y="0" type="line"/>
      <point x="462" y="0" type="line"/>
      <point x="462" y="103" type="line"/>
      <point x="203" y="103" type="line"/>
      <point x="459" y="431" type="line"/>
      <point x="459" y="534" type="line"/>
      <point x="33" y="534" type="line"/>
      <point x="33" y="431" type="line"/>
      <point x="286" y="431" type="line"/>
      <point x="30" y="103" type="line"/>
    </contour>
    <contour>
      <point x="246" y="534" type="move" name="top"/>
    </contour>
  </outline>
</glyph>
<glyph name="braceleft" format="1">
  <advance width="360.31897"/>
  <unicode hex="007B"/>
  <outline>
    <contour>
      <point x="181" y="-92" type="curve" smooth="yes"/>
      <point x="328" y="-92" type="line"/>
      <point x="328" y="8" type="line"/>
      <point x="248" y="8" type="line" smooth="yes"/>
      <point x="230" y="8"/>
      <point x="222" y="16"/>
      <point x="222" y="33" type="curve" smooth="yes"/>
      <point x="222" y="67"/>
      <point x="252" y="185"/>
      <point x="252" y="243" type="curve" smooth="yes"/>
      <point x="252" y="300"/>
      <point x="226" y="329"/>
      <point x="170" y="329" type="curve"/>
      <point x="170" y="361" type="line"/>
      <point x="226" y="361"/>
      <point x="252" y="390"/>
      <point x="252" y="447" type="curve" smooth="yes"/>
      <point x="252" y="505"/>
      <point x="222" y="623"/>
      <point x="222" y="657" type="curve" smooth="yes"/>
      <point x="222" y="674"/>
      <point x="230" y="682"/>
      <point x="248" y="682" type="curve" smooth="yes"/>
      <point x="328" y="682" type="line"/>
      <point x="328" y="782" type="line"/>
      <point x="181" y="782" type="line" smooth="yes"/>
      <point x="123" y="782"/>
      <point x="92" y="751"/>
      <point x="92" y="691" type="curve" smooth="yes"/>
      <point x="92" y="631"/>
      <point x="125" y="489"/>
      <point x="125" y="440" type="curve" smooth="yes"/>
      <point x="125" y="410"/>
      <point x="113" y="394"/>
      <point x="87" y="394" type="curve" smooth="yes"/>
      <point x="27" y="394" type="line"/>
      <point x="27" y="296" type="line"/>
      <point x="87" y="296" type="line" smooth="yes"/>
      <point x="113" y="296"/>
      <point x="125" y="280"/>
      <point x="125" y="250" type="curve" smooth="yes"/>
      <point x="125" y="201"/>
      <point x="92" y="59"/>
      <point x="92" y="-1" type="curve" smooth="yes"/>
      <point x="92" y="-61"/>
      <point x="123" y="-92"/>
    </contour>
  </outline>
</glyph>
<glyph name="braceright" format="1">
  <advance width="360.31897"/>
  <unicode hex="007D"/>
  <outline>
    <contour>
      <point x="179" y="782" type="curve" smooth="yes"/>
      <point x="32" y="782" type="line"/>
      <point x="32" y="682" type="line"/>
      <point x="112" y="682" type="line" smooth="yes"/>
      <point x="130" y="682"/>
      <point x="139" y="674"/>
      <point x="139" y="657" type="curve" smooth="yes"/>
      <point x="139" y="623"/>
      <point x="108" y="505"/>
      <point x="108" y="447" type="curve" smooth="yes"/>
      <point x="108" y="390"/>
      <point x="135" y="361"/>
      <point x="190" y="361" type="curve"/>
      <point x="190" y="329" type="line"/>
      <point x="135" y="329"/>
      <point x="108" y="300"/>
      <point x="108" y="243" type="curve" smooth="yes"/>
      <point x="108" y="185"/>
      <point x="139" y="67"/>
      <point x="139" y="33" type="curve" smooth="yes"/>
      <point x="139" y="16"/>
      <point x="130" y="8"/>
      <point x="112" y="8" type="curve" smooth="yes"/>
      <point x="32" y="8" type="line"/>
      <point x="32" y="-92" type="line"/>
      <point x="179" y="-92" type="line" smooth="yes"/>
      <point x="238" y="-92"/>
      <point x="269" y="-61"/>
      <point x="269" y="-1" type="curve" smooth="yes"/>
      <point x="269" y="59"/>
      <point x="235" y="201"/>
      <point x="235" y="250" type="curve" smooth="yes"/>
      <point x="235" y="280"/>
      <point x="248" y="296"/>
      <point x="273" y="296" type="curve" smooth="yes"/>
      <point x="333" y="296" type="line"/>
      <point x="333" y="394" type="line"/>
      <point x="273" y="394" type="line" smooth="yes"/>
      <point x="248" y="394"/>
      <point x="235" y="410"/>
      <point x="235" y="440" type="curve" smooth="yes"/>
      <point x="235" y="489"/>
      <point x="269" y="631"/>
      <point x="269" y="691" type="curve" smooth="yes"/>
      <point x="269" y="751"/>
      <point x="238" y="782"/>
    </contour>
  </outline>
</glyph>
<glyph name="cent" format="1">
  <advance width="576.46552"/>
  <unicode hex="00A2"/>
  <outline>
    <contour>
      <point x="293" y="-4" type="curve" smooth="yes"/>
      <point x="431" y="-4"/>
      <point x="518" y="63"/>
      <point x="536" y="194" type="curve"/>
      <point x="389" y="194" type="line"/>
      <point x="389" y="179" type="line"/>
      <point x="389" y="144"/>
      <point x="363" y="105"/>
      <point x="293" y="105" type="curve" smooth="yes"/>
      <point x="223" y="105"/>
      <point x="191" y="141"/>
      <point x="191" y="228" type="curve" smooth="yes"/>
      <point x="191" y="306" type="line" smooth="yes"/>
      <point x="191" y="393"/>
      <point x="223" y="429"/>
      <point x="293" y="429" type="curve" smooth="yes"/>
      <point x="363" y="429"/>
      <point x="389" y="390"/>
      <point x="389" y="361" type="curve" smooth="yes"/>
      <point x="389" y="348" type="line"/>
      <point x="534" y="348" type="line"/>
      <point x="514" y="474"/>
      <point x="429" y="538"/>
      <point x="293" y="538" type="curve" smooth="yes"/>
      <point x="133" y="538"/>
      <point x="41" y="446"/>
      <point x="41" y="267" type="curve" smooth="yes"/>
      <point x="41" y="88"/>
      <point x="133" y="-4"/>
    </contour>
    <contour>
      <point x="241" y="-92" type="line"/>
      <point x="346" y="-92" type="line"/>
      <point x="346" y="24" type="line"/>
      <point x="241" y="24" type="line"/>
    </contour>
    <contour>
      <point x="241" y="510" type="line"/>
      <point x="346" y="510" type="line"/>
      <point x="346" y="626" type="line"/>
      <point x="241" y="626" type="line"/>
    </contour>
  </outline>
</glyph>
<glyph name="sterling" format="1">
  <advance width="609.27586"/>
  <unicode hex="00A3"/>
  <outline>
    <contour>
      <point x="49" y="114" type="curve"/>
      <point x="49" y="0" type="line"/>
      <point x="573" y="0" type="line"/>
      <point x="573" y="120" type="line"/>
      <point x="223" y="120" type="line"/>
      <point x="257" y="150"/>
      <point x="278" y="186"/>
      <point x="278" y="241" type="curve" smooth="yes"/>
      <point x="278" y="325"/>
      <point x="217" y="401"/>
      <point x="217" y="483" type="curve" smooth="yes"/>
      <point x="217" y="502" type="line" smooth="yes"/>
      <point x="217" y="547"/>
      <point x="253" y="585"/>
      <point x="319" y="585" type="curve" smooth="yes"/>
      <point x="387" y="585"/>
      <point x="434" y="554"/>
      <point x="434" y="487" type="curve" smooth="yes"/>
      <point x="434" y="448" type="line"/>
      <point x="572" y="448" type="line"/>
      <point x="569" y="620"/>
      <point x="481" y="700"/>
      <point x="317" y="700" type="curve" smooth="yes"/>
      <point x="162" y="700"/>
      <point x="66" y="622"/>
      <point x="66" y="501" type="curve" smooth="yes"/>
      <point x="66" y="393"/>
      <point x="135" y="330"/>
      <point x="135" y="240" type="curve" smooth="yes"/>
      <point x="135" y="186"/>
      <point x="106" y="145"/>
    </contour>
    <contour>
      <point x="40" y="280" type="line"/>
      <point x="452" y="280" type="line"/>
      <point x="452" y="382" type="line"/>
      <point x="40" y="382" type="line"/>
    </contour>
  </outline>
</glyph>
<glyph name="section" format="1">
  <advance width="579.36207"/>
  <unicode hex="00A7"/>
  <outline>
    <contour>
      <point x="285" y="-102" type="curve" smooth="yes"/>
      <point x="448" y="-102"/>
      <point x="529" y="-40"/>
      <point x="529" y="70" type="curve" smooth="yes"/>
      <point x="529" y="122"/>
      <point x="502" y="175"/>
      <point x="444" y="193" type="curve"/>
      <point x="444" y="224" type="line"/>
      <point x="510" y="230"/>
      <point x="545" y="268"/>
      <point x="545" y="317" type="curve" smooth="yes"/>
      <point x="545" y="376"/>
      <point x="499" y="421"/>
      <point x="392" y="442" type="curve" smooth="yes"/>
      <point x="252" y="467" type="line" smooth="yes"/>
      <point x="209" y="477"/>
      <point x="191" y="495"/>
      <point x="191" y="531" type="curve" smooth="yes"/>
      <point x="191" y="574"/>
      <point x="223" y="593"/>
      <point x="289" y="593" type="curve" smooth="yes"/>
      <point x="359" y="593"/>
      <point x="392" y="563"/>
      <point x="392" y="530" type="curve" smooth="yes"/>
      <point x="392" y="518" type="line"/>
      <point x="533" y="518" type="line"/>
      <point x="515" y="643"/>
      <point x="441" y="700"/>
      <point x="289" y="700" type="curve" smooth="yes"/>
      <point x="128" y="700"/>
      <point x="48" y="633"/>
      <point x="48" y="529" type="curve" smooth="yes"/>
      <point x="48" y="465"/>
      <point x="80" y="423"/>
      <point x="140" y="405" type="curve"/>
      <point x="140" y="374" type="line"/>
      <point x="73" y="368"/>
      <point x="38" y="326"/>
      <point x="38" y="276" type="curve" smooth="yes"/>
      <point x="38" y="215"/>
      <point x="84" y="177"/>
      <point x="188" y="156" type="curve" smooth="yes"/>
      <point x="323" y="131" type="line" smooth="yes"/>
      <point x="367" y="120"/>
      <point x="385" y="99"/>
      <point x="385" y="65" type="curve" smooth="yes"/>
      <point x="385" y="22"/>
      <point x="351" y="5"/>
      <point x="291" y="5" type="curve" smooth="yes"/>
      <point x="214" y="5"/>
      <point x="183" y="32"/>
      <point x="183" y="68" type="curve" smooth="yes"/>
      <point x="183" y="80" type="line"/>
      <point x="42" y="80" type="line"/>
      <point x="60" y="-47"/>
      <point x="135" y="-102"/>
    </contour>
    <contour>
      <point x="379" y="233" type="curve"/>
      <point x="240" y="256" type="line" smooth="yes"/>
      <point x="199" y="267"/>
      <point x="179" y="285"/>
      <point x="179" y="317" type="curve" smooth="yes"/>
      <point x="179" y="338"/>
      <point x="188" y="354"/>
      <point x="204" y="364" type="curve"/>
      <point x="343" y="342" type="line" smooth="yes"/>
      <point x="384" y="331"/>
      <point x="404" y="313"/>
      <point x="404" y="281" type="curve" smooth="yes"/>
      <point x="404" y="259"/>
      <point x="395" y="244"/>
    </contour>
  </outline>
</glyph>
<glyph name="ordfeminine" format="1">
  <advance width="437.5"/>
  <unicode hex="00AA"/>
  <note>
ordfeminine
</note>
  <outline>
    <contour>
      <point x="148" y="353" type="curve" smooth="yes"/>
      <point x="201" y="353"/>
      <point x="229" y="376"/>
      <point x="238" y="427" type="curve"/>
      <point x="263" y="427" type="line"/>
      <point x="263" y="419" type="line" smooth="yes"/>
      <point x="263" y="382"/>
      <point x="286" y="359"/>
      <point x="329" y="359" type="curve" smooth="yes"/>
      <point x="395" y="359" type="line"/>
      <point x="395" y="438" type="line"/>
      <point x="363" y="438" type="line"/>
      <point x="363" y="569" type="line" smooth="yes"/>
      <point x="363" y="652"/>
      <point x="309" y="696"/>
      <point x="208" y="696" type="curve" smooth="yes"/>
      <point x="115" y="696"/>
      <point x="61" y="658"/>
      <point x="50" y="581" type="curve"/>
      <point x="162" y="581" type="line"/>
      <point x="162" y="585" type="line" smooth="yes"/>
      <point x="162" y="605"/>
      <point x="178" y="616"/>
      <point x="205" y="616" type="curve" smooth="yes"/>
      <point x="236" y="616"/>
      <point x="249" y="602"/>
      <point x="249" y="568" type="curve" smooth="yes"/>
      <point x="249" y="532" type="line"/>
      <point x="249" y="521" type="line"/>
      <point x="249" y="473" type="line" smooth="yes"/>
      <point x="249" y="446"/>
      <point x="233" y="434"/>
      <point x="201" y="434" type="curve" smooth="yes"/>
      <point x="173" y="434"/>
      <point x="158" y="444"/>
      <point x="158" y="463" type="curve" smooth="yes"/>
      <point x="158" y="467" type="line" smooth="yes"/>
      <point x="158" y="484"/>
      <point x="169" y="492"/>
      <point x="193" y="496" type="curve" smooth="yes"/>
      <point x="249" y="500" type="line"/>
      <point x="249" y="556" type="line"/>
      <point x="166" y="548" type="line" smooth="yes"/>
      <point x="80" y="540"/>
      <point x="41" y="510"/>
      <point x="41" y="448" type="curve" smooth="yes"/>
      <point x="41" y="389"/>
      <point x="83" y="353"/>
    </contour>
    <contour>
      <point x="210" y="690" type="move" name="top"/>
    </contour>
  </outline>
</glyph>
<glyph name="degree" format="1">
  <advance width="388.10345"/>
  <unicode hex="00B0"/>
  <outline>
    <contour>
      <point x="194" y="371" type="curve" smooth="yes"/>
      <point x="300" y="371"/>
      <point x="362" y="431"/>
      <point x="362" y="535" type="curve" smooth="yes"/>
      <point x="362" y="639"/>
      <point x="300" y="699"/>
      <point x="194" y="699" type="curve" smooth="yes"/>
      <point x="88" y="699"/>
      <point x="26" y="639"/>
      <point x="26" y="535" type="curve" smooth="yes"/>
      <point x="26" y="431"/>
      <point x="88" y="371"/>
    </contour>
    <contour>
      <point x="194" y="450" type="curve" smooth="yes"/>
      <point x="150" y="450"/>
      <point x="130" y="472"/>
      <point x="130" y="518" type="curve" smooth="yes"/>
      <point x="130" y="553" type="line" smooth="yes"/>
      <point x="130" y="599"/>
      <point x="150" y="620"/>
      <point x="194" y="620" type="curve" smooth="yes"/>
      <point x="238" y="620"/>
      <point x="259" y="598"/>
      <point x="259" y="553" type="curve" smooth="yes"/>
      <point x="259" y="517" type="line" smooth="yes"/>
      <point x="259" y="472"/>
      <point x="238" y="450"/>
    </contour>
  </outline>
</glyph>
<glyph name="micro" format="1">
  <advance width="592.24138"/>
  <unicode hex="00B5"/>
  <outline>
    <contour>
      <point x="67" y="-132" type="line"/>
      <point x="210" y="-132" type="line"/>
      <point x="210" y="-24" type="line" smooth="yes"/>
      <point x="210" y="3"/>
      <point x="207" y="35"/>
      <point x="200" y="98" type="curve"/>
      <point x="154" y="88" type="line"/>
      <point x="165" y="27"/>
      <point x="198" y="-6"/>
      <point x="247" y="-6" type="curve" smooth="yes"/>
      <point x="306" y="-6"/>
      <point x="350" y="27"/>
      <point x="369" y="107" type="curve"/>
      <point x="402" y="107" type="line"/>
      <point x="402" y="0" type="line"/>
      <point x="525" y="0" type="line"/>
      <point x="525" y="534" type="line"/>
      <point x="383" y="534" type="line"/>
      <point x="383" y="206" type="line" smooth="yes"/>
      <point x="383" y="133"/>
      <point x="355" y="101"/>
      <point x="296" y="101" type="curve" smooth="yes"/>
      <point x="237" y="101"/>
      <point x="210" y="133"/>
      <point x="210" y="206" type="curve" smooth="yes"/>
      <point x="210" y="534" type="line"/>
      <point x="67" y="534" type="line"/>
    </contour>
  </outline>
</glyph>
<glyph name="questiondown" format="1">
  <advance width="543.34483"/>
  <unicode hex="00BF"/>
  <outline>
    <contour>
      <point x="336" y="288" type="curve" smooth="yes"/>
      <point x="331" y="343" type="line"/>
      <point x="248" y="343" type="line"/>
      <point x="244" y="301" type="line" smooth="yes"/>
      <point x="241" y="273"/>
      <point x="231" y="260"/>
      <point x="194" y="245" type="curve" smooth="yes"/>
      <point x="64" y="199"/>
      <point x="21" y="148"/>
      <point x="21" y="46" type="curve" smooth="yes"/>
      <point x="21" y="36" type="line" smooth="yes"/>
      <point x="21" y="-95"/>
      <point x="121" y="-166"/>
      <point x="277" y="-166" type="curve" smooth="yes"/>
      <point x="433" y="-166"/>
      <point x="517" y="-95"/>
      <point x="532" y="72" type="curve"/>
      <point x="387" y="72" type="line"/>
      <point x="387" y="44" type="line" smooth="yes"/>
      <point x="387" y="-17"/>
      <point x="346" y="-52"/>
      <point x="274" y="-52" type="curve" smooth="yes"/>
      <point x="211" y="-52"/>
      <point x="168" y="-29"/>
      <point x="168" y="27" type="curve" smooth="yes"/>
      <point x="168" y="50" type="line" smooth="yes"/>
      <point x="168" y="89"/>
      <point x="187" y="115"/>
      <point x="242" y="134" type="curve" smooth="yes"/>
      <point x="322" y="164"/>
      <point x="348" y="203"/>
    </contour>
    <contour>
      <point x="365" y="534" type="line"/>
      <point x="213" y="534" type="line"/>
      <point x="213" y="387" type="line"/>
      <point x="365" y="387" type="line"/>
    </contour>
  </outline>
</glyph>
<glyph name="Atilde" format="1">
  <advance width="631"/>
  <unicode hex="00C3"/>
  <note>
Atilde
</note>
  <outline>
    <component base="A"/>
    <component base="tildecomb.case" xOffset="114" yOffset="40"/>
    <contour>
      <point x="619" y="0" type="move" name="ogonek"/>
    </contour>
    <contour>
      <point x="314" y="690" type="move" name="top"/>
    </contour>
  </outline>
</glyph>
<glyph name="multiply" format="1">
  <advance width="474.58621"/>
  <unicode hex="00D7"/>
  <outline>
    <contour>
      <point x="107" y="134" type="line"/>
      <point x="440" y="467" type="line"/>
      <point x="367" y="540" type="line"/>
      <point x="35" y="207" type="line"/>
    </contour>
    <contour>
      <point x="365" y="137" type="line"/>
      <point x="438" y="209" type="line"/>
      <point x="110" y="537" type="line"/>
      <point x="36" y="465" type="line"/>
    </contour>
  </outline>
</glyph>
<glyph name="Oslash" format="1">
  <advance width="698.12069"/>
  <unicode hex="00D8"/>
  <note>
Oslash
</note>
  <outline>
    <contour>
      <point x="350" y="-10" type="curve" smooth="yes"/>
      <point x="546" y="-10"/>
      <point x="657" y="108"/>
      <point x="657" y="345" type="curve" smooth="yes"/>
      <point x="657" y="582"/>
      <point x="546" y="700"/>
      <point x="350" y="700" type="curve" smooth="yes"/>
      <point x="152" y="700"/>
      <point x="42" y="582"/>
      <point x="42" y="345" type="curve" smooth="yes"/>
      <point x="42" y="108"/>
      <point x="152" y="-10"/>
    </contour>
    <contour>
      <point x="350" y="103" type="curve" smooth="yes"/>
      <point x="243" y="103"/>
      <point x="196" y="160"/>
      <point x="196" y="285" type="curve" smooth="yes"/>
      <point x="196" y="405" type="line" smooth="yes"/>
      <point x="196" y="530"/>
      <point x="243" y="587"/>
      <point x="350" y="587" type="curve" smooth="yes"/>
      <point x="456" y="587"/>
      <point x="503" y="530"/>
      <point x="503" y="405" type="curve" smooth="yes"/>
      <point x="503" y="285" type="line" smooth="yes"/>
      <point x="503" y="160"/>
      <point x="456" y="103"/>
    </contour>
    <contour>
      <point x="44" y="-10" type="line"/>
      <point x="147" y="-10" type="line"/>
      <point x="205" y="70" type="line"/>
      <point x="213" y="70" type="line"/>
      <point x="554" y="571" type="line"/>
      <point x="562" y="571" type="line"/>
      <point x="655" y="700" type="line"/>
      <point x="551" y="700" type="line"/>
      <point x="494" y="622" type="line"/>
      <point x="487" y="622" type="line"/>
      <point x="146" y="120" type="line"/>
      <point x="138" y="120" type="line"/>
    </contour>
    <contour>
      <point x="350" y="690" type="move" name="top"/>
    </contour>
  </outline>
</glyph>
<glyph name="Ugrave" format="1">
  <advance width="692"/>
  <unicode hex="00D9"/>
  <note>
Ugrave
</note>
  <outline>
    <component base="U"/>
    <component base="gravecomb.case" xOffset="143" yOffset="40"/>
    <contour>
      <point x="343" y="690" type="move" name="top"/>
    </contour>
  </outline>
</glyph>
<glyph name="germandbls" format="1">
  <advance width="604.25862"/>
  <unicode hex="00DF"/>
  <note>
germandbls
</note>
  <outline>
    <contour>
      <point x="75" y="476" type="curve" smooth="yes"/>
      <point x="75" y="0" type="line"/>
      <point x="218" y="0" type="line"/>
      <point x="218" y="500" type="line" smooth="yes"/>
      <point x="218" y="559"/>
      <point x="252" y="589"/>
      <point x="316" y="589" type="curve" smooth="yes"/>
      <point x="375" y="589"/>
      <point x="406" y="564"/>
      <point x="406" y="515" type="curve" smooth="yes"/>
      <point x="406" y="483" type="line" smooth="yes"/>
      <point x="406" y="433"/>
      <point x="381" y="409"/>
      <point x="327" y="409" type="curve" smooth="yes"/>
      <point x="288" y="409" type="line"/>
      <point x="288" y="311" type="line"/>
      <point x="331" y="311" type="line" smooth="yes"/>
      <point x="393" y="311"/>
      <point x="423" y="284"/>
      <point x="423" y="227" type="curve" smooth="yes"/>
      <point x="423" y="186" type="line" smooth="yes"/>
      <point x="423" y="130"/>
      <point x="393" y="103"/>
      <point x="331" y="103" type="curve" smooth="yes"/>
      <point x="274" y="103" type="line"/>
      <point x="274" y="0" type="line"/>
      <point x="340" y="0" type="line" smooth="yes"/>
      <point x="491" y="0"/>
      <point x="569" y="65"/>
      <point x="569" y="194" type="curve" smooth="yes"/>
      <point x="569" y="289"/>
      <point x="525" y="338"/>
      <point x="442" y="344" type="curve"/>
      <point x="442" y="376" type="line"/>
      <point x="515" y="381"/>
      <point x="553" y="430"/>
      <point x="553" y="513" type="curve" smooth="yes"/>
      <point x="553" y="630"/>
      <point x="463" y="700"/>
      <point x="316" y="700" type="curve" smooth="yes"/>
      <point x="161" y="700"/>
      <point x="75" y="620"/>
    </contour>
    <contour>
      <point x="17" y="431" type="line"/>
      <point x="153" y="431" type="line"/>
      <point x="153" y="534" type="line"/>
      <point x="17" y="534" type="line"/>
    </contour>
  </outline>
</glyph>
<glyph name="ae" format="1">
  <advance width="898.17241"/>
  <unicode hex="00E6"/>
  <note>
ae
</note>
  <outline>
    <contour>
      <point x="190" y="-10" type="curve" smooth="yes"/>
      <point x="271" y="-10"/>
      <point x="340" y="26"/>
      <point x="369" y="117" type="curve"/>
      <point x="402" y="117" type="line"/>
      <point x="429" y="34"/>
      <point x="508" y="-10"/>
      <point x="617" y="-10" type="curve" smooth="yes"/>
      <point x="748" y="-10"/>
      <point x="833" y="53"/>
      <point x="857" y="172" type="curve"/>
      <point x="710" y="172" type="line"/>
      <point x="710" y="162" type="line"/>
      <point x="710" y="139"/>
      <point x="686" y="101"/>
      <point x="617" y="101" type="curve" smooth="yes"/>
      <point x="546" y="101"/>
      <point x="513" y="140"/>
      <point x="513" y="228" type="curve" smooth="yes"/>
      <point x="513" y="309" type="line" smooth="yes"/>
      <point x="513" y="398"/>
      <point x="546" y="437"/>
      <point x="617" y="437" type="curve" smooth="yes"/>
      <point x="688" y="437"/>
      <point x="721" y="398"/>
      <point x="721" y="309" type="curve" smooth="yes"/>
      <point x="721" y="281" type="line"/>
      <point x="816" y="329" type="line"/>
      <point x="453" y="329" type="line"/>
      <point x="453" y="239" type="line"/>
      <point x="864" y="239" type="line"/>
      <point x="864" y="287" type="line" smooth="yes"/>
      <point x="864" y="454"/>
      <point x="773" y="544"/>
      <point x="617" y="544" type="curve" smooth="yes"/>
      <point x="537" y="544"/>
      <point x="477" y="520"/>
      <point x="453" y="475" type="curve"/>
      <point x="421" y="475" type="line"/>
      <point x="404" y="520"/>
      <point x="349" y="544"/>
      <point x="268" y="544" type="curve" smooth="yes"/>
      <point x="135" y="544"/>
      <point x="57" y="485"/>
      <point x="38" y="362" type="curve"/>
      <point x="183" y="362" type="line"/>
      <point x="183" y="372" type="line"/>
      <point x="183" y="403"/>
      <point x="207" y="433"/>
      <point x="265" y="433" type="curve" smooth="yes"/>
      <point x="321" y="433"/>
      <point x="347" y="406"/>
      <point x="347" y="342" type="curve" smooth="yes"/>
      <point x="347" y="261" type="line"/>
      <point x="347" y="245" type="line"/>
      <point x="347" y="173" type="line" smooth="yes"/>
      <point x="347" y="122"/>
      <point x="315" y="97"/>
      <point x="254" y="97" type="curve" smooth="yes"/>
      <point x="204" y="97"/>
      <point x="175" y="116"/>
      <point x="175" y="151" type="curve" smooth="yes"/>
      <point x="175" y="162" type="line" smooth="yes"/>
      <point x="175" y="199"/>
      <point x="198" y="217"/>
      <point x="256" y="223" type="curve" smooth="yes"/>
      <point x="347" y="232" type="line"/>
      <point x="347" y="322" type="line"/>
      <point x="213" y="309" type="line" smooth="yes"/>
      <point x="91" y="296"/>
      <point x="28" y="240"/>
      <point x="28" y="143" type="curve" smooth="yes"/>
      <point x="28" y="47"/>
      <point x="90" y="-10"/>
    </contour>
    <contour>
      <point x="430" y="534" type="move" name="top"/>
    </contour>
  </outline>
</glyph>
<glyph name="ccedilla" format="1">
  <advance width="562"/>
  <unicode hex="00E7"/>
  <note>
ccedilla
</note>
  <outline>
    <component base="c"/>
    <component base="cedillacomb" xOffset="87"/>
    <contour>
      <point x="287" y="0" type="move" name="bottom"/>
    </contour>
    <contour>
      <point x="287" y="534" type="move" name="top"/>
    </contour>
  </outline>
</glyph>
<glyph name="divide" format="1">
  <advance width="474.58621"/>
  <unicode hex="00F7"/>
  <outline>
    <contour>
      <point x="178" y="439" type="line"/>
      <point x="296" y="439" type="line"/>
      <point x="296" y="553" type="line"/>
      <point x="178" y="553" type="line"/>
    </contour>
    <contour>
      <point x="178" y="121" type="line"/>
      <point x="296" y="121" type="line"/>
      <point x="296" y="235" type="line"/>
      <point x="178" y="235" type="line"/>
    </contour>
    <contour>
      <point x="24" y="286" type="line"/>
      <point x="450" y="286" type="line"/>
      <point x="450" y="388" type="line"/>
      <point x="24" y="388" type="line"/>
    </contour>
  </outline>
</glyph>
<glyph name="thorn" format="1">
  <advance width="596.03448"/>
  <unicode hex="00FE"/>
  <note>
thorn
</note>
  <outline>
    <contour>
      <point x="61" y="-132" type="line"/>
      <point x="203" y="-132" type="line"/>
      <point x="203" y="-24" type="line" smooth="yes"/>
      <point x="203" y="3"/>
      <point x="200" y="35"/>
      <point x="193" y="98" type="curve"/>
      <point x="226" y="98" type="line"/>
      <point x="243" y="26"/>
      <point x="289" y="-10"/>
      <point x="362" y="-10" type="curve" smooth="yes"/>
      <point x="482" y="-10"/>
      <point x="561" y="94"/>
      <point x="561" y="267" type="curve" smooth="yes"/>
      <point x="561" y="440"/>
      <point x="482" y="544"/>
      <point x="362" y="544" type="curve" smooth="yes"/>
      <point x="289" y="544"/>
      <point x="243" y="508"/>
      <point x="226" y="436" type="curve"/>
      <point x="193" y="436" type="line"/>
      <point x="200" y="499"/>
      <point x="203" y="531"/>
      <point x="203" y="562" type="curve" smooth="yes"/>
      <point x="203" y="690" type="line"/>
      <point x="6" y="690" type="line"/>
      <point x="6" y="587" type="line"/>
      <point x="61" y="587" type="line"/>
    </contour>
    <contour>
      <point x="307" y="101" type="curve" smooth="yes"/>
      <point x="236" y="101"/>
      <point x="203" y="140"/>
      <point x="203" y="228" type="curve" smooth="yes"/>
      <point x="203" y="306" type="line" smooth="yes"/>
      <point x="203" y="394"/>
      <point x="236" y="433"/>
      <point x="307" y="433" type="curve" smooth="yes"/>
      <point x="378" y="433"/>
      <point x="411" y="394"/>
      <point x="411" y="306" type="curve" smooth="yes"/>
      <point x="411" y="228" type="line" smooth="yes"/>
      <point x="411" y="140"/>
      <point x="378" y="101"/>
    </contour>
  </outline>
</glyph>
<glyph name="idotless" format="1">
  <advance width="271.87931"/>
  <unicode hex="0131"/>
  <outline>
    <contour>
      <point x="69" y="0" type="line"/>
      <point x="212" y="0" type="line"/>
      <point x="212" y="534" type="line"/>
      <point x="12" y="534" type="line"/>
      <point x="12" y="431" type="line"/>
      <point x="69" y="431" type="line"/>
    </contour>
    <contour>
      <point x="139" y="534" type="move" name="top"/>
    </contour>
  </outline>
</glyph>
<glyph name="nacute" format="1">
  <advance width="603"/>
  <unicode hex="0144"/>
  <outline>
    <component base="n"/>
    <component base="acutecomb" xOffset="106"/>
    <contour>
      <point x="306" y="534" type="move" name="top"/>
    </contour>
  </outline>
</glyph>
<glyph name="oe" format="1">
  <advance width="962.32759"/>
  <unicode hex="0153"/>
  <note>
oe
</note>
  <outline>
    <contour>
      <point x="291" y="-10" type="curve" smooth="yes"/>
      <point x="382" y="-10"/>
      <point x="447" y="21"/>
      <point x="471" y="77" type="curve"/>
      <point x="504" y="77" type="line"/>
      <point x="528" y="21"/>
      <point x="592" y="-10"/>
      <point x="682" y="-10" type="curve" smooth="yes"/>
      <point x="813" y="-10"/>
      <point x="897" y="53"/>
      <point x="921" y="172" type="curve"/>
      <point x="775" y="172" type="line"/>
      <point x="775" y="162" type="line"/>
      <point x="775" y="139"/>
      <point x="750" y="101"/>
      <point x="682" y="101" type="curve" smooth="yes"/>
      <point x="610" y="101"/>
      <point x="578" y="140"/>
      <point x="578" y="228" type="curve" smooth="yes"/>
      <point x="578" y="309" type="line" smooth="yes"/>
      <point x="578" y="398"/>
      <point x="610" y="437"/>
      <point x="682" y="437" type="curve" smooth="yes"/>
      <point x="753" y="437"/>
      <point x="785" y="398"/>
      <point x="785" y="309" type="curve" smooth="yes"/>
      <point x="785" y="274" type="line"/>
      <point x="826" y="329" type="line"/>
      <point x="517" y="329" type="line"/>
      <point x="517" y="239" type="line"/>
      <point x="928" y="239" type="line"/>
      <point x="928" y="287" type="line" smooth="yes"/>
      <point x="928" y="454"/>
      <point x="837" y="544"/>
      <point x="682" y="544" type="curve" smooth="yes"/>
      <point x="592" y="544"/>
      <point x="528" y="513"/>
      <point x="504" y="457" type="curve"/>
      <point x="471" y="457" type="line"/>
      <point x="447" y="513"/>
      <point x="382" y="544"/>
      <point x="291" y="544" type="curve" smooth="yes"/>
      <point x="127" y="544"/>
      <point x="34" y="446"/>
      <point x="34" y="267" type="curve" smooth="yes"/>
      <point x="34" y="88"/>
      <point x="127" y="-10"/>
    </contour>
    <contour>
      <point x="291" y="101" type="curve" smooth="yes"/>
      <point x="218" y="101"/>
      <point x="184" y="140"/>
      <point x="184" y="228" type="curve" smooth="yes"/>
      <point x="184" y="306" type="line" smooth="yes"/>
      <point x="184" y="394"/>
      <point x="218" y="433"/>
      <point x="291" y="433" type="curve" smooth="yes"/>
      <point x="364" y="433"/>
      <point x="397" y="394"/>
      <point x="397" y="306" type="curve" smooth="yes"/>
      <point x="397" y="228" type="line" smooth="yes"/>
      <point x="397" y="140"/>
      <point x="364" y="101"/>
    </contour>
  </outline>
</glyph>
<glyph name="sacute" format="1">
  <advance width="532"/>
  <unicode hex="015B"/>
  <outline>
    <component base="s"/>
    <component base="acutecomb" xOffset="60"/>
    <contour>
      <point x="260" y="534" type="move" name="top"/>
    </contour>
  </outline>
</glyph>
<glyph name="ogonek" format="1">
  <advance width="400"/>
  <unicode hex="02DB"/>
  <outline>
    <component base="ogonekcomb" identifier="01855118"/>
    <contour>
      <point x="200" y="0" type="move" name="_ogonek"/>
    </contour>
  </outline>
</glyph>
<glyph name="tildecomb" format="1">
  <advance width="0"/>
  <unicode hex="0303"/>
  <note>
tilde
</note>
  <outline>
    <contour>
      <point x="264" y="569" type="curve" smooth="yes"/>
      <point x="327" y="569"/>
      <point x="365" y="607"/>
      <point x="365" y="670" type="curve" smooth="yes"/>
      <point x="365" y="700" type="line"/>
      <point x="273" y="700" type="line"/>
      <point x="273" y="674" type="line" smooth="yes"/>
      <point x="273" y="660"/>
      <point x="266" y="653"/>
      <point x="253" y="653" type="curve" smooth="yes"/>
      <point x="221" y="653"/>
      <point x="210" y="706"/>
      <point x="136" y="706" type="curve" smooth="yes"/>
      <point x="73" y="706"/>
      <point x="35" y="668"/>
      <point x="35" y="605" type="curve" smooth="yes"/>
      <point x="35" y="575" type="line"/>
      <point x="127" y="575" type="line"/>
      <point x="127" y="601" type="line" smooth="yes"/>
      <point x="127" y="615"/>
      <point x="134" y="623"/>
      <point x="147" y="623" type="curve" smooth="yes"/>
      <point x="179" y="623"/>
      <point x="190" y="569"/>
    </contour>
    <contour>
      <point x="200" y="534" type="move" name="_top"/>
    </contour>
  </outline>
</glyph>
<glyph name="dieresiscomb" format="1">
  <advance width="0"/>
  <unicode hex="0308"/>
  <outline>
    <contour>
      <point x="28" y="574" type="line"/>
      <point x="178" y="574" type="line"/>
      <point x="178" y="690" type="line"/>
      <point x="28" y="690" type="line"/>
    </contour>
    <contour>
      <point x="222" y="574" type="line"/>
      <point x="372" y="574" type="line"/>
      <point x="372" y="690" type="line"/>
      <point x="222" y="690" type="line"/>
    </contour>
    <contour>
      <point x="200" y="534" type="move" name="_top"/>
    </contour>
  </outline>
</glyph>
<glyph name="cedillacomb" format="1">
  <advance width="0"/>
  <unicode hex="0327"/>
  <note>
cedilla
</note>
  <outline>
    <contour>
      <point x="107" y="-174" type="line"/>
      <point x="238" y="-174" type="line" smooth="yes"/>
      <point x="306" y="-174"/>
      <point x="339" y="-150"/>
      <point x="339" y="-100" type="curve" smooth="yes"/>
      <point x="339" y="-52"/>
      <point x="309" y="-29"/>
      <point x="243" y="-29" type="curve" smooth="yes"/>
      <point x="211" y="-29" type="line"/>
      <point x="254" y="-47" type="line"/>
      <point x="254" y="10" type="line"/>
      <point x="146" y="10" type="line"/>
      <point x="146" y="-56" type="line"/>
      <point x="200" y="-56" type="line" smooth="yes"/>
      <point x="217" y="-56"/>
      <point x="225" y="-62"/>
      <point x="225" y="-75" type="curve" smooth="yes"/>
      <point x="225" y="-88"/>
      <point x="217" y="-95"/>
      <point x="200" y="-95" type="curve" smooth="yes"/>
      <point x="107" y="-95" type="line"/>
    </contour>
    <contour>
      <point x="200" y="0" type="move" name="_bottom"/>
    </contour>
  </outline>
</glyph>
<glyph name="pi" format="1">
  <advance width="656.17241"/>
  <unicode hex="03C0"/>
  <outline>
    <contour>
      <point x="488" y="0" type="curve" smooth="yes"/>
      <point x="617" y="0" type="line"/>
      <point x="617" y="103" type="line"/>
      <point x="542" y="103" type="line"/>
      <point x="542" y="479" type="line"/>
      <point x="399" y="479" type="line"/>
      <point x="399" y="89" type="line" smooth="yes"/>
      <point x="399" y="31"/>
      <point x="430" y="0"/>
    </contour>
    <contour>
      <point x="99" y="0" type="line"/>
      <point x="242" y="0" type="line"/>
      <point x="242" y="479" type="line"/>
      <point x="99" y="479" type="line"/>
    </contour>
    <contour>
      <point x="25" y="431" type="line"/>
      <point x="617" y="431" type="line"/>
      <point x="617" y="534" type="line"/>
      <point x="25" y="534" type="line"/>
    </contour>
  </outline>
</glyph>
<glyph name="quoteleft" format="1">
  <advance width="237.57759"/>
  <unicode hex="2018"/>
  <outline>
    <contour>
      <point x="194" y="690" type="line"/>
      <point x="119" y="690" type="line"/>
      <point x="41" y="591" type="line"/>
      <point x="41" y="444" type="line"/>
      <point x="193" y="444" type="line"/>
      <point x="193" y="591" type="line"/>
      <point x="119" y="591" type="line"/>
    </contour>
  </outline>
</glyph>
<glyph name="daggerdbl" format="1">
  <advance width="489.40517"/>
  <unicode hex="2021"/>
  <outline>
    <contour>
      <point x="50" y="437" type="line"/>
      <point x="439" y="437" type="line"/>
      <point x="439" y="534" type="line"/>
      <point x="360" y="534" type="line"/>
      <point x="286" y="491" type="line"/>
      <point x="280" y="497" type="line"/>
      <point x="305" y="589" type="line"/>
      <point x="305" y="690" type="line"/>
      <point x="185" y="690" type="line"/>
      <point x="185" y="589" type="line"/>
      <point x="210" y="497" type="line"/>
      <point x="203" y="491" type="line"/>
      <point x="130" y="534" type="line"/>
      <point x="50" y="534" type="line"/>
    </contour>
    <contour>
      <point x="185" y="0" type="line"/>
      <point x="305" y="0" type="line"/>
      <point x="305" y="101" type="line"/>
      <point x="280" y="193" type="line"/>
      <point x="286" y="199" type="line"/>
      <point x="360" y="156" type="line"/>
      <point x="439" y="156" type="line"/>
      <point x="439" y="253" type="line"/>
      <point x="50" y="253" type="line"/>
      <point x="50" y="156" type="line"/>
      <point x="130" y="156" type="line"/>
      <point x="203" y="199" type="line"/>
      <point x="210" y="193" type="line"/>
      <point x="185" y="101" type="line"/>
    </contour>
    <contour>
      <point x="192" y="293" type="line"/>
      <point x="297" y="293" type="line"/>
      <point x="297" y="397" type="line"/>
      <point x="192" y="397" type="line"/>
    </contour>
  </outline>
</glyph>
<glyph name="bullet" format="1">
  <advance width="381.63793"/>
  <unicode hex="2022"/>
  <outline>
    <contour>
      <point x="87" y="184" type="line"/>
      <point x="295" y="184" type="line"/>
      <point x="295" y="384" type="line"/>
      <point x="87" y="384" type="line"/>
    </contour>
  </outline>
</glyph>
<glyph name="euro" format="1">
  <advance width="711.06034"/>
  <unicode hex="20AC"/>
  <outline>
    <contour>
      <point x="396" y="-10" type="curve" smooth="yes"/>
      <point x="552" y="-10"/>
      <point x="653" y="73"/>
      <point x="678" y="235" type="curve"/>
      <point x="530" y="235" type="line"/>
      <point x="530" y="212" type="line" smooth="yes"/>
      <point x="530" y="163"/>
      <point x="488" y="105"/>
      <point x="396" y="105" type="curve" smooth="yes"/>
      <point x="304" y="105"/>
      <point x="255" y="161"/>
      <point x="255" y="284" type="curve" smooth="yes"/>
      <point x="255" y="406" type="line" smooth="yes"/>
      <point x="255" y="530"/>
      <point x="304" y="585"/>
      <point x="396" y="585" type="curve" smooth="yes"/>
      <point x="487" y="585"/>
      <point x="530" y="528"/>
      <point x="530" y="493" type="curve" smooth="yes"/>
      <point x="530" y="474" type="line"/>
      <point x="675" y="474" type="line"/>
      <point x="645" y="623"/>
      <point x="546" y="700"/>
      <point x="396" y="700" type="curve" smooth="yes"/>
      <point x="212" y="700"/>
      <point x="103" y="582"/>
      <point x="103" y="345" type="curve" smooth="yes"/>
      <point x="103" y="108"/>
      <point x="212" y="-10"/>
    </contour>
    <contour>
      <point x="46" y="246" type="line"/>
      <point x="474" y="246" type="line"/>
      <point x="474" y="333" type="line"/>
      <point x="46" y="333" type="line"/>
    </contour>
    <contour>
      <point x="46" y="371" type="line"/>
      <point x="474" y="371" type="line"/>
      <point x="474" y="458" type="line"/>
      <point x="46" y="458" type="line"/>
    </contour>
  </outline>
</glyph>
<glyph name="literSign" format="1">
  <advance width="587.40517"/>
  <unicode hex="2113"/>
  <outline>
    <contour>
      <point x="327" y="-10" type="curve" smooth="yes"/>
      <point x="449" y="-10"/>
      <point x="526" y="52"/>
      <point x="548" y="172" type="curve"/>
      <point x="402" y="172" type="line"/>
      <point x="402" y="161" type="line" smooth="yes"/>
      <point x="402" y="138"/>
      <point x="384" y="101"/>
      <point x="327" y="101" type="curve" smooth="yes"/>
      <point x="266" y="101"/>
      <point x="242" y="145"/>
      <point x="242" y="263" type="curve" smooth="yes"/>
      <point x="242" y="427" type="line" smooth="yes"/>
      <point x="242" y="545"/>
      <point x="267" y="589"/>
      <point x="330" y="589" type="curve" smooth="yes"/>
      <point x="384" y="589"/>
      <point x="412" y="557"/>
      <point x="412" y="503" type="curve" smooth="yes"/>
      <point x="412" y="466" type="line" smooth="yes"/>
      <point x="412" y="418"/>
      <point x="390" y="391"/>
      <point x="327" y="365" type="curve" smooth="yes"/>
      <point x="34" y="244" type="line"/>
      <point x="34" y="140" type="line"/>
      <point x="393" y="290" type="line" smooth="yes"/>
      <point x="513" y="341"/>
      <point x="556" y="393"/>
      <point x="556" y="492" type="curve" smooth="yes"/>
      <point x="556" y="623"/>
      <point x="473" y="700"/>
      <point x="330" y="700" type="curve" smooth="yes"/>
      <point x="167" y="700"/>
      <point x="92" y="593"/>
      <point x="92" y="345" type="curve" smooth="yes"/>
      <point x="92" y="101"/>
      <point x="169" y="-10"/>
    </contour>
  </outline>
</glyph>
<glyph name="partialdiff" format="1">
  <advance width="579.40517"/>
  <unicode hex="2202"/>
  <outline>
    <contour>
      <point x="286" y="-10" type="curve" smooth="yes"/>
      <point x="448" y="-10"/>
      <point x="540" y="90"/>
      <point x="540" y="284" type="curve" smooth="yes"/>
      <point x="540" y="501"/>
      <point x="415" y="687"/>
      <point x="170" y="697" type="curve"/>
      <point x="170" y="570" type="line"/>
      <point x="314" y="564"/>
      <point x="379" y="467"/>
      <point x="394" y="397" type="curve"/>
      <point x="362" y="397" type="line"/>
      <point x="344" y="453"/>
      <point x="298" y="494"/>
      <point x="230" y="494" type="curve" smooth="yes"/>
      <point x="108" y="494"/>
      <point x="32" y="396"/>
      <point x="32" y="246" type="curve" smooth="yes"/>
      <point x="32" y="82"/>
      <point x="124" y="-10"/>
    </contour>
    <contour>
      <point x="285" y="101" type="curve" smooth="yes"/>
      <point x="214" y="101"/>
      <point x="183" y="138"/>
      <point x="183" y="213" type="curve" smooth="yes"/>
      <point x="183" y="276" type="line" smooth="yes"/>
      <point x="183" y="351"/>
      <point x="214" y="389"/>
      <point x="285" y="389" type="curve" smooth="yes"/>
      <point x="357" y="389"/>
      <point x="388" y="351"/>
      <point x="388" y="276" type="curve" smooth="yes"/>
      <point x="388" y="213" type="line" smooth="yes"/>
      <point x="388" y="138"/>
      <point x="357" y="101"/>
    </contour>
  </outline>
</glyph>
<glyph name="increment" format="1">
  <advance width="618.68103"/>
  <unicode hex="2206"/>
  <outline>
    <contour>
      <point x="28" y="0" type="line"/>
      <point x="591" y="0" type="line"/>
      <point x="591" y="107" type="line"/>
      <point x="441" y="690" type="line"/>
      <point x="179" y="690" type="line"/>
      <point x="28" y="107" type="line"/>
    </contour>
    <contour>
      <point x="172" y="107" type="line"/>
      <point x="290" y="568" type="line"/>
      <point x="322" y="568" type="line"/>
      <point x="441" y="107" type="line"/>
    </contour>
  </outline>
</glyph>
<glyph name="summation" format="1">
  <advance width="572.21552"/>
  <unicode hex="2211"/>
  <outline>
    <contour>
      <point x="37" y="0" type="line"/>
      <point x="536" y="0" type="line"/>
      <point x="536" y="122" type="line"/>
      <point x="214" y="122" type="line"/>
      <point x="403" y="345" type="line"/>
      <point x="215" y="568" type="line"/>
      <point x="534" y="568" type="line"/>
      <point x="534" y="690" type="line"/>
      <point x="37" y="690" type="line"/>
      <point x="37" y="583" type="line"/>
      <point x="228" y="345" type="line"/>
      <point x="37" y="107" type="line"/>
    </contour>
  </outline>
</glyph>
<glyph name="divisionslash" format="1">
  <advance width="474.58621"/>
  <unicode hex="2215"/>
  <outline>
    <contour>
      <point x="4" y="0" type="line"/>
      <point x="127" y="0" type="line"/>
      <point x="470" y="690" type="line"/>
      <point x="348" y="690" type="line"/>
    </contour>
  </outline>
</glyph>
<glyph name="radical" format="1">
  <advance width="538.53448"/>
  <unicode hex="221A"/>
  <outline>
    <contour>
      <point x="121" y="0" type="line"/>
      <point x="369" y="0" type="line"/>
      <point x="514" y="690" type="line"/>
      <point x="379" y="690" type="line"/>
      <point x="262" y="118" type="line"/>
      <point x="229" y="118" type="line"/>
      <point x="167" y="404" type="line"/>
      <point x="30" y="404" type="line"/>
    </contour>
  </outline>
</glyph>
<glyph name="infinity" format="1">
  <advance width="671.90517"/>
  <unicode hex="221E"/>
  <outline>
    <contour>
      <point x="176" y="179" type="curve" smooth="yes"/>
      <point x="248" y="179"/>
      <point x="299" y="226"/>
      <point x="319" y="278" type="curve"/>
      <point x="352" y="278" type="line"/>
      <point x="373" y="226"/>
      <point x="424" y="179"/>
      <point x="496" y="179" type="curve" smooth="yes"/>
      <point x="569" y="179"/>
      <point x="632" y="238"/>
      <point x="632" y="337" type="curve" smooth="yes"/>
      <point x="632" y="436"/>
      <point x="569" y="495"/>
      <point x="496" y="495" type="curve" smooth="yes"/>
      <point x="424" y="495"/>
      <point x="373" y="448"/>
      <point x="352" y="396" type="curve"/>
      <point x="319" y="396" type="line"/>
      <point x="298" y="448"/>
      <point x="248" y="495"/>
      <point x="176" y="495" type="curve" smooth="yes"/>
      <point x="102" y="495"/>
      <point x="40" y="436"/>
      <point x="40" y="337" type="curve" smooth="yes"/>
      <point x="40" y="238"/>
      <point x="102" y="179"/>
    </contour>
    <contour>
      <point x="194" y="275" type="curve" smooth="yes"/>
      <point x="160" y="275"/>
      <point x="141" y="296"/>
      <point x="141" y="332" type="curve" smooth="yes"/>
      <point x="141" y="342" type="line" smooth="yes"/>
      <point x="141" y="378"/>
      <point x="160" y="399"/>
      <point x="194" y="399" type="curve" smooth="yes"/>
      <point x="229" y="399"/>
      <point x="263" y="377"/>
      <point x="293" y="337" type="curve"/>
      <point x="263" y="297"/>
      <point x="229" y="275"/>
    </contour>
    <contour>
      <point x="478" y="275" type="curve" smooth="yes"/>
      <point x="443" y="275"/>
      <point x="409" y="297"/>
      <point x="378" y="337" type="curve"/>
      <point x="409" y="377"/>
      <point x="443" y="399"/>
      <point x="478" y="399" type="curve" smooth="yes"/>
      <point x="511" y="399"/>
      <point x="530" y="378"/>
      <point x="530" y="342" type="curve" smooth="yes"/>
      <point x="530" y="332" type="line" smooth="yes"/>
      <point x="530" y="296"/>
      <point x="511" y="275"/>
    </contour>
  </outline>
</glyph>
<glyph name="integral" format="1">
  <advance width="331.38793"/>
  <unicode hex="222B"/>
  <outline>
    <contour>
      <point x="29" y="0" type="line"/>
      <point x="184" y="0" type="line" smooth="yes"/>
      <point x="213" y="0"/>
      <point x="228" y="15"/>
      <point x="228" y="44" type="curve" smooth="yes"/>
      <point x="228" y="583" type="line"/>
      <point x="302" y="583" type="line"/>
      <point x="302" y="690" type="line"/>
      <point x="147" y="690" type="line" smooth="yes"/>
      <point x="118" y="690"/>
      <point x="103" y="675"/>
      <point x="103" y="646" type="curve" smooth="yes"/>
      <point x="103" y="107" type="line"/>
      <point x="29" y="107" type="line"/>
    </contour>
  </outline>
</glyph>
<glyph name="lessequal" format="1">
  <advance width="474.58621"/>
  <unicode hex="2264"/>
  <outline>
    <contour>
      <point x="448" y="167" type="line"/>
      <point x="448" y="276" type="line"/>
      <point x="135" y="362" type="line"/>
      <point x="135" y="394" type="line"/>
      <point x="448" y="481" type="line"/>
      <point x="448" y="589" type="line"/>
      <point x="23" y="456" type="line"/>
      <point x="23" y="300" type="line"/>
    </contour>
    <contour>
      <point x="23" y="14" type="line"/>
      <point x="448" y="14" type="line"/>
      <point x="448" y="116" type="line"/>
      <point x="23" y="116" type="line"/>
    </contour>
  </outline>
</glyph>
<glyph name="greaterequal" format="1">
  <advance width="474.58621"/>
  <unicode hex="2265"/>
  <outline>
    <contour>
      <point x="27" y="167" type="line"/>
      <point x="451" y="300" type="line"/>
      <point x="451" y="456" type="line"/>
      <point x="27" y="589" type="line"/>
      <point x="27" y="481" type="line"/>
      <point x="340" y="394" type="line"/>
      <point x="340" y="362" type="line"/>
      <point x="27" y="276" type="line"/>
    </contour>
    <contour>
      <point x="27" y="14" type="line"/>
      <point x="451" y="14" type="line"/>
      <point x="451" y="116" type="line"/>
      <point x="27" y="116" type="line"/>
    </contour>
  </outline>
</glyph>
<glyph name="fi" format="1">
  <advance width="648.5431"/>
  <unicode hex="FB01"/>
  <outline>
    <contour>
      <point x="103" y="601" type="curve" smooth="yes"/>
      <point x="103" y="0" type="line"/>
      <point x="246" y="0" type="line"/>
      <point x="246" y="587" type="line"/>
      <point x="354" y="587" type="line"/>
      <point x="354" y="690" type="line"/>
      <point x="191" y="690" type="line" smooth="yes"/>
      <point x="134" y="690"/>
      <point x="103" y="659"/>
    </contour>
    <contour>
      <point x="37" y="0" type="line"/>
      <point x="339" y="0" type="line"/>
      <point x="339" y="103" type="line"/>
      <point x="37" y="103" type="line"/>
    </contour>
    <contour>
      <point x="30" y="431" type="line"/>
      <point x="354" y="431" type="line"/>
      <point x="354" y="534" type="line"/>
      <point x="30" y="534" type="line"/>
    </contour>
    <contour>
      <point x="446" y="0" type="line"/>
      <point x="589" y="0" type="line"/>
      <point x="589" y="534" type="line"/>
      <point x="389" y="534" type="line"/>
      <point x="389" y="431" type="line"/>
      <point x="446" y="431" type="line"/>
    </contour>
    <contour>
      <point x="439" y="574" type="line"/>
      <point x="592" y="574" type="line"/>
      <point x="592" y="690" type="line"/>
      <point x="439" y="690" type="line"/>
    </contour>
    <contour>
      <point x="311" y="534" type="line"/>
      <point x="311" y="431" type="line"/>
      <point x="418" y="431" type="line"/>
      <point x="418" y="534" type="line"/>
    </contour>
  </outline>
</glyph>
<glyph name="fl" format="1">
  <advance width="643.87069"/>
  <unicode hex="FB02"/>
  <outline>
    <contour>
      <point x="103" y="601" type="curve" smooth="yes"/>
      <point x="103" y="0" type="line"/>
      <point x="246" y="0" type="line"/>
      <point x="246" y="587" type="line"/>
      <point x="354" y="587" type="line"/>
      <point x="354" y="690" type="line"/>
      <point x="191" y="690" type="line" smooth="yes"/>
      <point x="134" y="690"/>
      <point x="103" y="659"/>
    </contour>
    <contour>
      <point x="37" y="0" type="line"/>
      <point x="339" y="0" type="line"/>
      <point x="339" y="103" type="line"/>
      <point x="37" y="103" type="line"/>
    </contour>
    <contour>
      <point x="30" y="431" type="line"/>
      <point x="354" y="431" type="line"/>
      <point x="354" y="534" type="line"/>
      <point x="30" y="534" type="line"/>
    </contour>
    <contour>
      <point x="439" y="0" type="line"/>
      <point x="583" y="0" type="line"/>
      <point x="583" y="690" type="line"/>
      <point x="383" y="690" type="line"/>
      <point x="383" y="587" type="line"/>
      <point x="439" y="587" type="line"/>
    </contour>
    <contour>
      <point x="321" y="690" type="line"/>
      <point x="321" y="587" type="line"/>
      <point x="419" y="587" type="line"/>
      <point x="419" y="690" type="line"/>
    </contour>
  </outline>
</glyph>
<glyph name="personalComputer" format="1">
  <advance width="883.68966"/>
  <unicode hex="1F4BB"/>
  <outline>
    <contour>
      <point x="575" y="0" type="line"/>
      <point x="710" y="0" type="line"/>
      <point x="879" y="690" type="line"/>
      <point x="744" y="690" type="line"/>
    </contour>
    <contour>
      <point x="51" y="0" type="line"/>
      <point x="203" y="0" type="line"/>
      <point x="203" y="147" type="line"/>
      <point x="51" y="147" type="line"/>
    </contour>
    <contour>
      <point x="51" y="387" type="line"/>
      <point x="203" y="387" type="line"/>
      <point x="203" y="534" type="line"/>
      <point x="51" y="534" type="line"/>
    </contour>
    <contour>
      <point x="292" y="0" type="line"/>
      <point x="427" y="0" type="line"/>
      <point x="597" y="690" type="line"/>
      <point x="462" y="690" type="line"/>
    </contour>
  </outline>
</glyph>
<glyph name="A.ss03" format="1">
  <advance width="624.96552"/>
  <outline>
    <contour>
      <point x="13" y="0" type="line"/>
      <point x="159" y="0" type="line"/>
      <point x="293" y="568" type="line"/>
      <point x="325" y="568" type="line"/>
      <point x="460" y="0" type="line"/>
      <point x="612" y="0" type="line"/>
      <point x="445" y="690" type="line"/>
      <point x="180" y="690" type="line"/>
    </contour>
    <contour>
      <point x="135" y="153" type="line"/>
      <point x="477" y="153" type="line"/>
      <point x="476" y="255" type="line"/>
      <point x="137" y="255" type="line"/>
    </contour>
    <contour>
      <point x="612" y="0" type="move" name="ogonek"/>
    </contour>
    <contour>
      <point x="309" y="690" type="move" name="top"/>
    </contour>
  </outline>
</glyph>
<glyph name="Aring.ss03" format="1">
  <advance width="625"/>
  <note>
Aring
</note>
  <outline>
    <component base="A.ss03"/>
    <component base="ringcomb.case" xOffset="109" yOffset="40"/>
    <contour>
      <point x="612" y="0" type="move" name="ogonek"/>
    </contour>
    <contour>
      <point x="309" y="690" type="move" name="top"/>
    </contour>
  </outline>
</glyph>
<glyph name="D.ss03" format="1">
  <advance width="678.49138"/>
  <outline>
    <contour>
      <point x="69" y="0" type="line"/>
      <point x="344" y="0" type="line" smooth="yes"/>
      <point x="542" y="0"/>
      <point x="639" y="104"/>
      <point x="639" y="345" type="curve" smooth="yes"/>
      <point x="639" y="585"/>
      <point x="541" y="690"/>
      <point x="344" y="690" type="curve" smooth="yes"/>
      <point x="69" y="690" type="line"/>
    </contour>
    <contour>
      <point x="334" y="107" type="curve" smooth="yes"/>
      <point x="215" y="107" type="line"/>
      <point x="215" y="583" type="line"/>
      <point x="334" y="583" type="line" smooth="yes"/>
      <point x="437" y="583"/>
      <point x="484" y="528"/>
      <point x="484" y="405" type="curve" smooth="yes"/>
      <point x="484" y="285" type="line" smooth="yes"/>
      <point x="484" y="162"/>
      <point x="437" y="107"/>
    </contour>
  </outline>
</glyph>
<glyph name="E.ss03" format="1">
  <advance width="598.27586"/>
  <outline>
    <contour>
      <point x="428" y="483" type="line"/>
      <point x="550" y="483" type="line"/>
      <point x="550" y="690" type="line"/>
      <point x="69" y="690" type="line"/>
      <point x="69" y="0" type="line"/>
      <point x="554" y="0" type="line"/>
      <point x="554" y="211" type="line"/>
      <point x="432" y="211" type="line"/>
      <point x="432" y="107" type="line"/>
      <point x="216" y="107" type="line"/>
      <point x="216" y="303" type="line"/>
      <point x="446" y="303" type="line"/>
      <point x="446" y="401" type="line"/>
      <point x="216" y="401" type="line"/>
      <point x="216" y="583" type="line"/>
      <point x="428" y="583" type="line"/>
    </contour>
    <contour>
      <point x="554" y="0" type="move" name="ogonek"/>
    </contour>
    <contour>
      <point x="307" y="690" type="move" name="top"/>
    </contour>
  </outline>
</glyph>
<glyph name="Germandbls.ss03" format="1">
  <advance width="642.68103"/>
  <outline>
    <contour>
      <point x="67" y="0" type="line"/>
      <point x="213" y="0" type="line"/>
      <point x="213" y="583" type="line"/>
      <point x="425" y="583" type="line"/>
      <point x="313" y="410" type="line"/>
      <point x="313" y="311" type="line"/>
      <point x="362" y="311" type="line" smooth="yes"/>
      <point x="425" y="311"/>
      <point x="454" y="285"/>
      <point x="454" y="228" type="curve" smooth="yes"/>
      <point x="454" y="190" type="line" smooth="yes"/>
      <point x="454" y="133"/>
      <point x="425" y="107"/>
      <point x="362" y="107" type="curve" smooth="yes"/>
      <point x="269" y="107" type="line"/>
      <point x="269" y="0" type="line"/>
      <point x="372" y="0" type="line" smooth="yes"/>
      <point x="525" y="0"/>
      <point x="605" y="69"/>
      <point x="605" y="207" type="curve" smooth="yes"/>
      <point x="605" y="340"/>
      <point x="529" y="409"/>
      <point x="385" y="409" type="curve" smooth="yes"/>
      <point x="356" y="409" type="line"/>
      <point x="428" y="345" type="line"/>
      <point x="586" y="583" type="line"/>
      <point x="586" y="690" type="line"/>
      <point x="67" y="690" type="line"/>
    </contour>
  </outline>
</glyph>
<glyph name="K.ss03" format="1">
  <advance width="631.82759"/>
  <outline>
    <contour>
      <point x="68" y="0" type="line"/>
      <point x="214" y="0" type="line"/>
      <point x="214" y="303" type="line"/>
      <point x="278" y="303" type="line"/>
      <point x="449" y="0" type="line"/>
      <point x="623" y="0" type="line"/>
      <point x="623" y="104" type="line"/>
      <point x="560" y="104" type="line"/>
      <point x="394" y="390" type="line"/>
      <point x="392" y="331" type="line"/>
      <point x="614" y="690" type="line"/>
      <point x="448" y="690" type="line"/>
      <point x="278" y="405" type="line"/>
      <point x="214" y="405" type="line"/>
      <point x="214" y="690" type="line"/>
      <point x="68" y="690" type="line"/>
    </contour>
  </outline>
</glyph>
<glyph name="L.ss03" format="1">
  <advance width="568.48276"/>
  <outline>
    <contour>
      <point x="70" y="0" type="line"/>
      <point x="541" y="0" type="line"/>
      <point x="541" y="211" type="line"/>
      <point x="419" y="211" type="line"/>
      <point x="419" y="107" type="line"/>
      <point x="217" y="107" type="line"/>
      <point x="217" y="690" type="line"/>
      <point x="70" y="690" type="line"/>
    </contour>
    <contour>
      <point x="196" y="690" type="line"/>
      <point x="196" y="583" type="line"/>
      <point x="279" y="583" type="line"/>
      <point x="279" y="690" type="line"/>
    </contour>
  </outline>
</glyph>
<glyph name="M.ss04" format="1">
  <advance width="899.24138"/>
  <outline>
    <contour>
      <point x="77" y="0" type="line"/>
      <point x="220" y="0" type="line"/>
      <point x="220" y="568" type="line"/>
      <point x="252" y="568" type="line"/>
      <point x="385" y="0" type="line"/>
      <point x="519" y="0" type="line"/>
      <point x="651" y="568" type="line"/>
      <point x="684" y="568" type="line"/>
      <point x="684" y="0" type="line"/>
      <point x="831" y="0" type="line"/>
      <point x="831" y="690" type="line"/>
      <point x="569" y="690" type="line"/>
      <point x="470" y="263" type="line"/>
      <point x="438" y="263" type="line"/>
      <point x="338" y="690" type="line"/>
      <point x="77" y="690" type="line"/>
    </contour>
    <contour>
      <point x="96" y="583" type="line"/>
      <point x="96" y="690" type="line"/>
      <point x="14" y="690" type="line"/>
      <point x="14" y="583" type="line"/>
    </contour>
  </outline>
</glyph>
<glyph name="R.ss03" format="1">
  <advance width="646.4569"/>
  <outline>
    <contour>
      <point x="69" y="0" type="line"/>
      <point x="215" y="0" type="line"/>
      <point x="215" y="295" type="line"/>
      <point x="348" y="295" type="line" smooth="yes"/>
      <point x="397" y="295"/>
      <point x="420" y="271"/>
      <point x="420" y="218" type="curve" smooth="yes"/>
      <point x="420" y="0" type="line"/>
      <point x="626" y="0" type="line"/>
      <point x="626" y="107" type="line"/>
      <point x="564" y="107" type="line"/>
      <point x="564" y="201" type="line" smooth="yes"/>
      <point x="564" y="286"/>
      <point x="528" y="323"/>
      <point x="449" y="327" type="curve"/>
      <point x="449" y="360" type="line"/>
      <point x="539" y="365"/>
      <point x="585" y="412"/>
      <point x="585" y="502" type="curve" smooth="yes"/>
      <point x="585" y="623"/>
      <point x="506" y="690"/>
      <point x="371" y="690" type="curve"/>
      <point x="69" y="690" type="line"/>
    </contour>
    <contour>
      <point x="361" y="394" type="curve" smooth="yes"/>
      <point x="215" y="394" type="line"/>
      <point x="215" y="583" type="line"/>
      <point x="361" y="583" type="line" smooth="yes"/>
      <point x="411" y="583"/>
      <point x="434" y="559"/>
      <point x="434" y="506" type="curve" smooth="yes"/>
      <point x="434" y="472" type="line" smooth="yes"/>
      <point x="434" y="420"/>
      <point x="411" y="394"/>
    </contour>
  </outline>
</glyph>
<glyph name="Thorn.ss03" format="1">
  <advance width="614.76724"/>
  <note>
Thorn
</note>
  <outline>
    <contour>
      <point x="152" y="148" type="line"/>
      <point x="365" y="148" type="line" smooth="yes"/>
      <point x="509" y="148"/>
      <point x="583" y="217"/>
      <point x="583" y="352" type="curve" smooth="yes"/>
      <point x="583" y="488"/>
      <point x="508" y="556"/>
      <point x="364" y="556" type="curve" smooth="yes"/>
      <point x="152" y="556" type="line"/>
      <point x="152" y="456" type="line"/>
      <point x="353" y="456" type="line" smooth="yes"/>
      <point x="408" y="456"/>
      <point x="433" y="429"/>
      <point x="433" y="372" type="curve" smooth="yes"/>
      <point x="433" y="332" type="line" smooth="yes"/>
      <point x="433" y="275"/>
      <point x="408" y="248"/>
      <point x="353" y="248" type="curve" smooth="yes"/>
      <point x="152" y="248" type="line"/>
    </contour>
    <contour>
      <point x="68" y="0" type="line"/>
      <point x="214" y="0" type="line"/>
      <point x="214" y="690" type="line"/>
      <point x="68" y="690" type="line"/>
    </contour>
  </outline>
</glyph>
<glyph name="Ucircumflex.ss03" format="1">
  <advance width="684"/>
  <note>
Ucircumflex
</note>
  <outline>
    <component base="U.ss03"/>
    <component base="circumflexcomb.case" xOffset="135" yOffset="40"/>
    <contour>
      <point x="335" y="690" type="move" name="top"/>
    </contour>
  </outline>
</glyph>
<glyph name="dieresiscomb.narrow" format="1">
  <advance width="0"/>
  <outline>
    <contour>
      <point x="42" y="574" type="line"/>
      <point x="186" y="574" type="line"/>
      <point x="186" y="690" type="line"/>
      <point x="42" y="690" type="line"/>
    </contour>
    <contour>
      <point x="214" y="574" type="line"/>
      <point x="358" y="574" type="line"/>
      <point x="358" y="690" type="line"/>
      <point x="214" y="690" type="line"/>
    </contour>
    <contour>
      <point x="200" y="534" type="move" name="_top"/>
    </contour>
  </outline>
</glyph>
<glyph name="dotaccentcomb.case" format="1">
  <advance width="0"/>
  <outline>
    <component base="dotaccentcomb" yOffset="116" identifier="805204F4"/>
    <contour>
      <point x="200" y="650" type="move" name="_top"/>
    </contour>
  </outline>
</glyph>
<glyph name="f_h" format="1">
  <advance width="965.90517"/>
  <outline>
    <contour>
      <point x="103" y="601" type="curve" smooth="yes"/>
      <point x="103" y="0" type="line"/>
      <point x="246" y="0" type="line"/>
      <point x="246" y="587" type="line"/>
      <point x="354" y="587" type="line"/>
      <point x="354" y="690" type="line"/>
      <point x="191" y="690" type="line" smooth="yes"/>
      <point x="134" y="690"/>
      <point x="103" y="659"/>
    </contour>
    <contour>
      <point x="37" y="0" type="line"/>
      <point x="339" y="0" type="line"/>
      <point x="339" y="103" type="line"/>
      <point x="37" y="103" type="line"/>
    </contour>
    <contour>
      <point x="30" y="431" type="line"/>
      <point x="354" y="431" type="line"/>
      <point x="354" y="534" type="line"/>
      <point x="30" y="534" type="line"/>
    </contour>
    <contour>
      <point x="438" y="0" type="line"/>
      <point x="581" y="0" type="line"/>
      <point x="581" y="328" type="line" smooth="yes"/>
      <point x="581" y="401"/>
      <point x="608" y="433"/>
      <point x="667" y="433" type="curve" smooth="yes"/>
      <point x="726" y="433"/>
      <point x="753" y="401"/>
      <point x="753" y="328" type="curve" smooth="yes"/>
      <point x="753" y="0" type="line"/>
      <point x="951" y="0" type="line"/>
      <point x="951" y="103" type="line"/>
      <point x="896" y="103" type="line"/>
      <point x="896" y="355" type="line" smooth="yes"/>
      <point x="896" y="479"/>
      <point x="840" y="544"/>
      <point x="735" y="544" type="curve" smooth="yes"/>
      <point x="661" y="544"/>
      <point x="619" y="511"/>
      <point x="603" y="437" type="curve"/>
      <point x="571" y="437" type="line"/>
      <point x="578" y="500"/>
      <point x="581" y="532"/>
      <point x="581" y="563" type="curve" smooth="yes"/>
      <point x="581" y="690" type="line"/>
      <point x="383" y="690" type="line"/>
      <point x="383" y="587" type="line"/>
      <point x="438" y="587" type="line"/>
    </contour>
    <contour>
      <point x="323" y="690" type="line"/>
      <point x="323" y="587" type="line"/>
      <point x="422" y="587" type="line"/>
      <point x="422" y="690" type="line"/>
    </contour>
  </outline>
</glyph>
<glyph name="f_k" format="1">
  <advance width="948.78448"/>
  <outline>
    <contour>
      <point x="103" y="601" type="curve" smooth="yes"/>
      <point x="103" y="0" type="line"/>
      <point x="246" y="0" type="line"/>
      <point x="246" y="587" type="line"/>
      <point x="354" y="587" type="line"/>
      <point x="354" y="690" type="line"/>
      <point x="191" y="690" type="line" smooth="yes"/>
      <point x="134" y="690"/>
      <point x="103" y="659"/>
    </contour>
    <contour>
      <point x="37" y="0" type="line"/>
      <point x="339" y="0" type="line"/>
      <point x="339" y="103" type="line"/>
      <point x="37" y="103" type="line"/>
    </contour>
    <contour>
      <point x="30" y="431" type="line"/>
      <point x="354" y="431" type="line"/>
      <point x="354" y="534" type="line"/>
      <point x="30" y="534" type="line"/>
    </contour>
    <contour>
      <point x="437" y="0" type="line"/>
      <point x="580" y="0" type="line"/>
      <point x="580" y="227" type="line"/>
      <point x="637" y="227" type="line"/>
      <point x="772" y="0" type="line"/>
      <point x="934" y="0" type="line"/>
      <point x="934" y="103" type="line"/>
      <point x="878" y="103" type="line"/>
      <point x="747" y="313" type="line"/>
      <point x="745" y="252" type="line"/>
      <point x="931" y="534" type="line"/>
      <point x="768" y="534" type="line"/>
      <point x="637" y="325" type="line"/>
      <point x="580" y="325" type="line"/>
      <point x="580" y="690" type="line"/>
      <point x="382" y="690" type="line"/>
      <point x="382" y="587" type="line"/>
      <point x="437" y="587" type="line"/>
    </contour>
    <contour>
      <point x="322" y="690" type="line"/>
      <point x="322" y="587" type="line"/>
      <point x="420" y="587" type="line"/>
      <point x="420" y="690" type="line"/>
    </contour>
  </outline>
</glyph>
<glyph name="f_t" format="1">
  <advance width="742.65517"/>
  <outline>
    <contour>
      <point x="103" y="601" type="curve" smooth="yes"/>
      <point x="103" y="0" type="line"/>
      <point x="246" y="0" type="line"/>
      <point x="246" y="587" type="line"/>
      <point x="354" y="587" type="line"/>
      <point x="354" y="690" type="line"/>
      <point x="191" y="690" type="line" smooth="yes"/>
      <point x="134" y="690"/>
      <point x="103" y="659"/>
    </contour>
    <contour>
      <point x="37" y="0" type="line"/>
      <point x="339" y="0" type="line"/>
      <point x="339" y="103" type="line"/>
      <point x="37" y="103" type="line"/>
    </contour>
    <contour>
      <point x="30" y="431" type="line"/>
      <point x="354" y="431" type="line"/>
      <point x="354" y="534" type="line"/>
      <point x="30" y="534" type="line"/>
    </contour>
    <contour>
      <point x="557" y="0" type="curve" smooth="yes"/>
      <point x="711" y="0" type="line"/>
      <point x="711" y="103" type="line"/>
      <point x="611" y="103" type="line"/>
      <point x="611" y="641" type="line"/>
      <point x="516" y="641" type="line"/>
      <point x="468" y="534" type="line"/>
      <point x="468" y="89" type="line" smooth="yes"/>
      <point x="468" y="31"/>
      <point x="499" y="0"/>
    </contour>
    <contour>
      <point x="391" y="431" type="line"/>
      <point x="711" y="431" type="line"/>
      <point x="711" y="534" type="line"/>
      <point x="391" y="534" type="line"/>
    </contour>
    <contour>
      <point x="313" y="534" type="line"/>
      <point x="313" y="431" type="line"/>
      <point x="420" y="431" type="line"/>
      <point x="420" y="534" type="line"/>
    </contour>
  </outline>
</glyph>
<glyph name="questiondown.case" format="1">
  <advance width="543.34483"/>
  <outline>
    <contour>
      <point x="336" y="444" type="curve" smooth="yes"/>
      <point x="331" y="499" type="line"/>
      <point x="248" y="499" type="line"/>
      <point x="244" y="457" type="line" smooth="yes"/>
      <point x="241" y="429"/>
      <point x="231" y="416"/>
      <point x="194" y="401" type="curve" smooth="yes"/>
      <point x="64" y="355"/>
      <point x="21" y="304"/>
      <point x="21" y="202" type="curve" smooth="yes"/>
      <point x="21" y="192" type="line" smooth="yes"/>
      <point x="21" y="61"/>
      <point x="121" y="-10"/>
      <point x="277" y="-10" type="curve" smooth="yes"/>
      <point x="433" y="-10"/>
      <point x="517" y="61"/>
      <point x="532" y="228" type="curve"/>
      <point x="387" y="228" type="line"/>
      <point x="387" y="200" type="line" smooth="yes"/>
      <point x="387" y="139"/>
      <point x="346" y="104"/>
      <point x="274" y="104" type="curve" smooth="yes"/>
      <point x="211" y="104"/>
      <point x="168" y="127"/>
      <point x="168" y="183" type="curve" smooth="yes"/>
      <point x="168" y="206" type="line" smooth="yes"/>
      <point x="168" y="245"/>
      <point x="187" y="271"/>
      <point x="242" y="290" type="curve" smooth="yes"/>
      <point x="322" y="320"/>
      <point x="348" y="359"/>
    </contour>
    <contour>
      <point x="365" y="690" type="line"/>
      <point x="213" y="690" type="line"/>
      <point x="213" y="543" type="line"/>
      <point x="365" y="543" type="line"/>
    </contour>
  </outline>
</glyph>
<glyph name="zero.zero" format="1">
  <advance width="660.18966"/>
  <outline>
    <contour>
      <point x="330" y="-10" type="curve" smooth="yes"/>
      <point x="522" y="-10"/>
      <point x="617" y="101"/>
      <point x="617" y="345" type="curve" smooth="yes"/>
      <point x="617" y="589"/>
      <point x="522" y="700"/>
      <point x="330" y="700" type="curve" smooth="yes"/>
      <point x="139" y="700"/>
      <point x="43" y="589"/>
      <point x="43" y="345" type="curve" smooth="yes"/>
      <point x="43" y="101"/>
      <point x="139" y="-10"/>
    </contour>
    <contour>
      <point x="330" y="105" type="curve" smooth="yes"/>
      <point x="238" y="105"/>
      <point x="198" y="155"/>
      <point x="198" y="266" type="curve" smooth="yes"/>
      <point x="198" y="424" type="line" smooth="yes"/>
      <point x="198" y="535"/>
      <point x="238" y="585"/>
      <point x="330" y="585" type="curve" smooth="yes"/>
      <point x="422" y="585"/>
      <point x="463" y="535"/>
      <point x="463" y="424" type="curve" smooth="yes"/>
      <point x="463" y="266" type="line" smooth="yes"/>
      <point x="463" y="155"/>
      <point x="422" y="105"/>
    </contour>
  </outline>
</glyph>
